<svg viewBox="0 0 2496 2496" width="2496" height="2496" xmlns="http://www.w3.org/2000/svg">
  <defs>
    <pattern id="pattern" x="0" y="0" width="8" height="8" patternUnits="userSpaceOnUse">
      <polygon points="0,4 0,8 8,0 4,0" fill="#ffffff"></polygon>
      <polygon points="4,8 8,8 8,4" fill="#ffffff"></polygon>
    </pattern>
    <mask id="grating" x="0" y="0" width="1" height="1">
      <rect x="0" y="0" width="100%" height="100%" fill="url(#pattern)"></rect>
    </mask>
  </defs>
  <clipPath id="dimensionClip">
    <rect x="0" y="0" width="2496" height="2496" />
  </clipPath>
  <g id="tartan" clip-path="url(#dimensionClip)">
    <g transform="translate(0, 0)">
      <g class="horizStripes"><rect fill="#FFFFFF" height="8" width="100%" x="0" y="0"></rect><rect fill="#101010" height="8" width="100%" x="0" y="8"></rect><rect fill="#FFFFFF" height="64" width="100%" x="0" y="16"></rect><rect fill="#101010" height="64" width="100%" x="0" y="80"></rect><rect fill="#FFFFFF" height="64" width="100%" x="0" y="144"></rect><rect fill="#101010" height="8" width="100%" x="0" y="208"></rect><rect fill="#FFFFFF" height="64" width="100%" x="0" y="216"></rect><rect fill="#101010" height="64" width="100%" x="0" y="280"></rect><rect fill="#FFFFFF" height="8" width="100%" x="0" y="344"></rect><rect fill="#101010" height="8" width="100%" x="0" y="352"></rect><rect fill="#FFFFFF" height="8" width="100%" x="0" y="360"></rect><rect fill="#101010" height="8" width="100%" x="0" y="368"></rect><rect fill="#FFFFFF" height="88" width="100%" x="0" y="376"></rect><rect fill="#101010" height="8" width="100%" x="0" y="464"></rect><rect fill="#FFFFFF" height="8" width="100%" x="0" y="472"></rect><rect fill="#101010" height="8" width="100%" x="0" y="480"></rect><rect fill="#FFFFFF" height="8" width="100%" x="0" y="488"></rect><rect fill="#101010" height="64" width="100%" x="0" y="496"></rect><rect fill="#FFFFFF" height="64" width="100%" x="0" y="560"></rect><rect fill="#101010" height="8" width="100%" x="0" y="624"></rect><rect fill="#FFFFFF" height="64" width="100%" x="0" y="632"></rect><rect fill="#101010" height="64" width="100%" x="0" y="696"></rect><rect fill="#FFFFFF" height="64" width="100%" x="0" y="760"></rect><rect fill="#101010" height="8" width="100%" x="0" y="824"></rect></g>
      <g class="vertStripes" mask="url(#grating)"><rect fill="#FFFFFF" height="100%" width="8" x="0" y="0"></rect><rect fill="#101010" height="100%" width="8" x="8" y="0"></rect><rect fill="#FFFFFF" height="100%" width="64" x="16" y="0"></rect><rect fill="#101010" height="100%" width="64" x="80" y="0"></rect><rect fill="#FFFFFF" height="100%" width="64" x="144" y="0"></rect><rect fill="#101010" height="100%" width="8" x="208" y="0"></rect><rect fill="#FFFFFF" height="100%" width="64" x="216" y="0"></rect><rect fill="#101010" height="100%" width="64" x="280" y="0"></rect><rect fill="#FFFFFF" height="100%" width="8" x="344" y="0"></rect><rect fill="#101010" height="100%" width="8" x="352" y="0"></rect><rect fill="#FFFFFF" height="100%" width="8" x="360" y="0"></rect><rect fill="#101010" height="100%" width="8" x="368" y="0"></rect><rect fill="#FFFFFF" height="100%" width="88" x="376" y="0"></rect><rect fill="#101010" height="100%" width="8" x="464" y="0"></rect><rect fill="#FFFFFF" height="100%" width="8" x="472" y="0"></rect><rect fill="#101010" height="100%" width="8" x="480" y="0"></rect><rect fill="#FFFFFF" height="100%" width="8" x="488" y="0"></rect><rect fill="#101010" height="100%" width="64" x="496" y="0"></rect><rect fill="#FFFFFF" height="100%" width="64" x="560" y="0"></rect><rect fill="#101010" height="100%" width="8" x="624" y="0"></rect><rect fill="#FFFFFF" height="100%" width="64" x="632" y="0"></rect><rect fill="#101010" height="100%" width="64" x="696" y="0"></rect><rect fill="#FFFFFF" height="100%" width="64" x="760" y="0"></rect><rect fill="#101010" height="100%" width="8" x="824" y="0"></rect></g>
    </g>

    <g transform="translate(832, 0)">
      <g class="horizStripes"><rect fill="#FFFFFF" height="8" width="100%" x="0" y="0"></rect><rect fill="#101010" height="8" width="100%" x="0" y="8"></rect><rect fill="#FFFFFF" height="64" width="100%" x="0" y="16"></rect><rect fill="#101010" height="64" width="100%" x="0" y="80"></rect><rect fill="#FFFFFF" height="64" width="100%" x="0" y="144"></rect><rect fill="#101010" height="8" width="100%" x="0" y="208"></rect><rect fill="#FFFFFF" height="64" width="100%" x="0" y="216"></rect><rect fill="#101010" height="64" width="100%" x="0" y="280"></rect><rect fill="#FFFFFF" height="8" width="100%" x="0" y="344"></rect><rect fill="#101010" height="8" width="100%" x="0" y="352"></rect><rect fill="#FFFFFF" height="8" width="100%" x="0" y="360"></rect><rect fill="#101010" height="8" width="100%" x="0" y="368"></rect><rect fill="#FFFFFF" height="88" width="100%" x="0" y="376"></rect><rect fill="#101010" height="8" width="100%" x="0" y="464"></rect><rect fill="#FFFFFF" height="8" width="100%" x="0" y="472"></rect><rect fill="#101010" height="8" width="100%" x="0" y="480"></rect><rect fill="#FFFFFF" height="8" width="100%" x="0" y="488"></rect><rect fill="#101010" height="64" width="100%" x="0" y="496"></rect><rect fill="#FFFFFF" height="64" width="100%" x="0" y="560"></rect><rect fill="#101010" height="8" width="100%" x="0" y="624"></rect><rect fill="#FFFFFF" height="64" width="100%" x="0" y="632"></rect><rect fill="#101010" height="64" width="100%" x="0" y="696"></rect><rect fill="#FFFFFF" height="64" width="100%" x="0" y="760"></rect><rect fill="#101010" height="8" width="100%" x="0" y="824"></rect></g>
      <g class="vertStripes" mask="url(#grating)"><rect fill="#FFFFFF" height="100%" width="8" x="0" y="0"></rect><rect fill="#101010" height="100%" width="8" x="8" y="0"></rect><rect fill="#FFFFFF" height="100%" width="64" x="16" y="0"></rect><rect fill="#101010" height="100%" width="64" x="80" y="0"></rect><rect fill="#FFFFFF" height="100%" width="64" x="144" y="0"></rect><rect fill="#101010" height="100%" width="8" x="208" y="0"></rect><rect fill="#FFFFFF" height="100%" width="64" x="216" y="0"></rect><rect fill="#101010" height="100%" width="64" x="280" y="0"></rect><rect fill="#FFFFFF" height="100%" width="8" x="344" y="0"></rect><rect fill="#101010" height="100%" width="8" x="352" y="0"></rect><rect fill="#FFFFFF" height="100%" width="8" x="360" y="0"></rect><rect fill="#101010" height="100%" width="8" x="368" y="0"></rect><rect fill="#FFFFFF" height="100%" width="88" x="376" y="0"></rect><rect fill="#101010" height="100%" width="8" x="464" y="0"></rect><rect fill="#FFFFFF" height="100%" width="8" x="472" y="0"></rect><rect fill="#101010" height="100%" width="8" x="480" y="0"></rect><rect fill="#FFFFFF" height="100%" width="8" x="488" y="0"></rect><rect fill="#101010" height="100%" width="64" x="496" y="0"></rect><rect fill="#FFFFFF" height="100%" width="64" x="560" y="0"></rect><rect fill="#101010" height="100%" width="8" x="624" y="0"></rect><rect fill="#FFFFFF" height="100%" width="64" x="632" y="0"></rect><rect fill="#101010" height="100%" width="64" x="696" y="0"></rect><rect fill="#FFFFFF" height="100%" width="64" x="760" y="0"></rect><rect fill="#101010" height="100%" width="8" x="824" y="0"></rect></g>
    </g>

    <g transform="translate(1664, 0)">
      <g class="horizStripes"><rect fill="#FFFFFF" height="8" width="100%" x="0" y="0"></rect><rect fill="#101010" height="8" width="100%" x="0" y="8"></rect><rect fill="#FFFFFF" height="64" width="100%" x="0" y="16"></rect><rect fill="#101010" height="64" width="100%" x="0" y="80"></rect><rect fill="#FFFFFF" height="64" width="100%" x="0" y="144"></rect><rect fill="#101010" height="8" width="100%" x="0" y="208"></rect><rect fill="#FFFFFF" height="64" width="100%" x="0" y="216"></rect><rect fill="#101010" height="64" width="100%" x="0" y="280"></rect><rect fill="#FFFFFF" height="8" width="100%" x="0" y="344"></rect><rect fill="#101010" height="8" width="100%" x="0" y="352"></rect><rect fill="#FFFFFF" height="8" width="100%" x="0" y="360"></rect><rect fill="#101010" height="8" width="100%" x="0" y="368"></rect><rect fill="#FFFFFF" height="88" width="100%" x="0" y="376"></rect><rect fill="#101010" height="8" width="100%" x="0" y="464"></rect><rect fill="#FFFFFF" height="8" width="100%" x="0" y="472"></rect><rect fill="#101010" height="8" width="100%" x="0" y="480"></rect><rect fill="#FFFFFF" height="8" width="100%" x="0" y="488"></rect><rect fill="#101010" height="64" width="100%" x="0" y="496"></rect><rect fill="#FFFFFF" height="64" width="100%" x="0" y="560"></rect><rect fill="#101010" height="8" width="100%" x="0" y="624"></rect><rect fill="#FFFFFF" height="64" width="100%" x="0" y="632"></rect><rect fill="#101010" height="64" width="100%" x="0" y="696"></rect><rect fill="#FFFFFF" height="64" width="100%" x="0" y="760"></rect><rect fill="#101010" height="8" width="100%" x="0" y="824"></rect></g>
      <g class="vertStripes" mask="url(#grating)"><rect fill="#FFFFFF" height="100%" width="8" x="0" y="0"></rect><rect fill="#101010" height="100%" width="8" x="8" y="0"></rect><rect fill="#FFFFFF" height="100%" width="64" x="16" y="0"></rect><rect fill="#101010" height="100%" width="64" x="80" y="0"></rect><rect fill="#FFFFFF" height="100%" width="64" x="144" y="0"></rect><rect fill="#101010" height="100%" width="8" x="208" y="0"></rect><rect fill="#FFFFFF" height="100%" width="64" x="216" y="0"></rect><rect fill="#101010" height="100%" width="64" x="280" y="0"></rect><rect fill="#FFFFFF" height="100%" width="8" x="344" y="0"></rect><rect fill="#101010" height="100%" width="8" x="352" y="0"></rect><rect fill="#FFFFFF" height="100%" width="8" x="360" y="0"></rect><rect fill="#101010" height="100%" width="8" x="368" y="0"></rect><rect fill="#FFFFFF" height="100%" width="88" x="376" y="0"></rect><rect fill="#101010" height="100%" width="8" x="464" y="0"></rect><rect fill="#FFFFFF" height="100%" width="8" x="472" y="0"></rect><rect fill="#101010" height="100%" width="8" x="480" y="0"></rect><rect fill="#FFFFFF" height="100%" width="8" x="488" y="0"></rect><rect fill="#101010" height="100%" width="64" x="496" y="0"></rect><rect fill="#FFFFFF" height="100%" width="64" x="560" y="0"></rect><rect fill="#101010" height="100%" width="8" x="624" y="0"></rect><rect fill="#FFFFFF" height="100%" width="64" x="632" y="0"></rect><rect fill="#101010" height="100%" width="64" x="696" y="0"></rect><rect fill="#FFFFFF" height="100%" width="64" x="760" y="0"></rect><rect fill="#101010" height="100%" width="8" x="824" y="0"></rect></g>
    </g>

    <g transform="translate(0, 832)">
      <g class="horizStripes"><rect fill="#FFFFFF" height="8" width="100%" x="0" y="0"></rect><rect fill="#101010" height="8" width="100%" x="0" y="8"></rect><rect fill="#FFFFFF" height="64" width="100%" x="0" y="16"></rect><rect fill="#101010" height="64" width="100%" x="0" y="80"></rect><rect fill="#FFFFFF" height="64" width="100%" x="0" y="144"></rect><rect fill="#101010" height="8" width="100%" x="0" y="208"></rect><rect fill="#FFFFFF" height="64" width="100%" x="0" y="216"></rect><rect fill="#101010" height="64" width="100%" x="0" y="280"></rect><rect fill="#FFFFFF" height="8" width="100%" x="0" y="344"></rect><rect fill="#101010" height="8" width="100%" x="0" y="352"></rect><rect fill="#FFFFFF" height="8" width="100%" x="0" y="360"></rect><rect fill="#101010" height="8" width="100%" x="0" y="368"></rect><rect fill="#FFFFFF" height="88" width="100%" x="0" y="376"></rect><rect fill="#101010" height="8" width="100%" x="0" y="464"></rect><rect fill="#FFFFFF" height="8" width="100%" x="0" y="472"></rect><rect fill="#101010" height="8" width="100%" x="0" y="480"></rect><rect fill="#FFFFFF" height="8" width="100%" x="0" y="488"></rect><rect fill="#101010" height="64" width="100%" x="0" y="496"></rect><rect fill="#FFFFFF" height="64" width="100%" x="0" y="560"></rect><rect fill="#101010" height="8" width="100%" x="0" y="624"></rect><rect fill="#FFFFFF" height="64" width="100%" x="0" y="632"></rect><rect fill="#101010" height="64" width="100%" x="0" y="696"></rect><rect fill="#FFFFFF" height="64" width="100%" x="0" y="760"></rect><rect fill="#101010" height="8" width="100%" x="0" y="824"></rect></g>
      <g class="vertStripes" mask="url(#grating)"><rect fill="#FFFFFF" height="100%" width="8" x="0" y="0"></rect><rect fill="#101010" height="100%" width="8" x="8" y="0"></rect><rect fill="#FFFFFF" height="100%" width="64" x="16" y="0"></rect><rect fill="#101010" height="100%" width="64" x="80" y="0"></rect><rect fill="#FFFFFF" height="100%" width="64" x="144" y="0"></rect><rect fill="#101010" height="100%" width="8" x="208" y="0"></rect><rect fill="#FFFFFF" height="100%" width="64" x="216" y="0"></rect><rect fill="#101010" height="100%" width="64" x="280" y="0"></rect><rect fill="#FFFFFF" height="100%" width="8" x="344" y="0"></rect><rect fill="#101010" height="100%" width="8" x="352" y="0"></rect><rect fill="#FFFFFF" height="100%" width="8" x="360" y="0"></rect><rect fill="#101010" height="100%" width="8" x="368" y="0"></rect><rect fill="#FFFFFF" height="100%" width="88" x="376" y="0"></rect><rect fill="#101010" height="100%" width="8" x="464" y="0"></rect><rect fill="#FFFFFF" height="100%" width="8" x="472" y="0"></rect><rect fill="#101010" height="100%" width="8" x="480" y="0"></rect><rect fill="#FFFFFF" height="100%" width="8" x="488" y="0"></rect><rect fill="#101010" height="100%" width="64" x="496" y="0"></rect><rect fill="#FFFFFF" height="100%" width="64" x="560" y="0"></rect><rect fill="#101010" height="100%" width="8" x="624" y="0"></rect><rect fill="#FFFFFF" height="100%" width="64" x="632" y="0"></rect><rect fill="#101010" height="100%" width="64" x="696" y="0"></rect><rect fill="#FFFFFF" height="100%" width="64" x="760" y="0"></rect><rect fill="#101010" height="100%" width="8" x="824" y="0"></rect></g>
    </g>

    <g transform="translate(832, 832)">
      <g class="horizStripes"><rect fill="#FFFFFF" height="8" width="100%" x="0" y="0"></rect><rect fill="#101010" height="8" width="100%" x="0" y="8"></rect><rect fill="#FFFFFF" height="64" width="100%" x="0" y="16"></rect><rect fill="#101010" height="64" width="100%" x="0" y="80"></rect><rect fill="#FFFFFF" height="64" width="100%" x="0" y="144"></rect><rect fill="#101010" height="8" width="100%" x="0" y="208"></rect><rect fill="#FFFFFF" height="64" width="100%" x="0" y="216"></rect><rect fill="#101010" height="64" width="100%" x="0" y="280"></rect><rect fill="#FFFFFF" height="8" width="100%" x="0" y="344"></rect><rect fill="#101010" height="8" width="100%" x="0" y="352"></rect><rect fill="#FFFFFF" height="8" width="100%" x="0" y="360"></rect><rect fill="#101010" height="8" width="100%" x="0" y="368"></rect><rect fill="#FFFFFF" height="88" width="100%" x="0" y="376"></rect><rect fill="#101010" height="8" width="100%" x="0" y="464"></rect><rect fill="#FFFFFF" height="8" width="100%" x="0" y="472"></rect><rect fill="#101010" height="8" width="100%" x="0" y="480"></rect><rect fill="#FFFFFF" height="8" width="100%" x="0" y="488"></rect><rect fill="#101010" height="64" width="100%" x="0" y="496"></rect><rect fill="#FFFFFF" height="64" width="100%" x="0" y="560"></rect><rect fill="#101010" height="8" width="100%" x="0" y="624"></rect><rect fill="#FFFFFF" height="64" width="100%" x="0" y="632"></rect><rect fill="#101010" height="64" width="100%" x="0" y="696"></rect><rect fill="#FFFFFF" height="64" width="100%" x="0" y="760"></rect><rect fill="#101010" height="8" width="100%" x="0" y="824"></rect></g>
      <g class="vertStripes" mask="url(#grating)"><rect fill="#FFFFFF" height="100%" width="8" x="0" y="0"></rect><rect fill="#101010" height="100%" width="8" x="8" y="0"></rect><rect fill="#FFFFFF" height="100%" width="64" x="16" y="0"></rect><rect fill="#101010" height="100%" width="64" x="80" y="0"></rect><rect fill="#FFFFFF" height="100%" width="64" x="144" y="0"></rect><rect fill="#101010" height="100%" width="8" x="208" y="0"></rect><rect fill="#FFFFFF" height="100%" width="64" x="216" y="0"></rect><rect fill="#101010" height="100%" width="64" x="280" y="0"></rect><rect fill="#FFFFFF" height="100%" width="8" x="344" y="0"></rect><rect fill="#101010" height="100%" width="8" x="352" y="0"></rect><rect fill="#FFFFFF" height="100%" width="8" x="360" y="0"></rect><rect fill="#101010" height="100%" width="8" x="368" y="0"></rect><rect fill="#FFFFFF" height="100%" width="88" x="376" y="0"></rect><rect fill="#101010" height="100%" width="8" x="464" y="0"></rect><rect fill="#FFFFFF" height="100%" width="8" x="472" y="0"></rect><rect fill="#101010" height="100%" width="8" x="480" y="0"></rect><rect fill="#FFFFFF" height="100%" width="8" x="488" y="0"></rect><rect fill="#101010" height="100%" width="64" x="496" y="0"></rect><rect fill="#FFFFFF" height="100%" width="64" x="560" y="0"></rect><rect fill="#101010" height="100%" width="8" x="624" y="0"></rect><rect fill="#FFFFFF" height="100%" width="64" x="632" y="0"></rect><rect fill="#101010" height="100%" width="64" x="696" y="0"></rect><rect fill="#FFFFFF" height="100%" width="64" x="760" y="0"></rect><rect fill="#101010" height="100%" width="8" x="824" y="0"></rect></g>
    </g>

    <g transform="translate(1664, 832)">
      <g class="horizStripes"><rect fill="#FFFFFF" height="8" width="100%" x="0" y="0"></rect><rect fill="#101010" height="8" width="100%" x="0" y="8"></rect><rect fill="#FFFFFF" height="64" width="100%" x="0" y="16"></rect><rect fill="#101010" height="64" width="100%" x="0" y="80"></rect><rect fill="#FFFFFF" height="64" width="100%" x="0" y="144"></rect><rect fill="#101010" height="8" width="100%" x="0" y="208"></rect><rect fill="#FFFFFF" height="64" width="100%" x="0" y="216"></rect><rect fill="#101010" height="64" width="100%" x="0" y="280"></rect><rect fill="#FFFFFF" height="8" width="100%" x="0" y="344"></rect><rect fill="#101010" height="8" width="100%" x="0" y="352"></rect><rect fill="#FFFFFF" height="8" width="100%" x="0" y="360"></rect><rect fill="#101010" height="8" width="100%" x="0" y="368"></rect><rect fill="#FFFFFF" height="88" width="100%" x="0" y="376"></rect><rect fill="#101010" height="8" width="100%" x="0" y="464"></rect><rect fill="#FFFFFF" height="8" width="100%" x="0" y="472"></rect><rect fill="#101010" height="8" width="100%" x="0" y="480"></rect><rect fill="#FFFFFF" height="8" width="100%" x="0" y="488"></rect><rect fill="#101010" height="64" width="100%" x="0" y="496"></rect><rect fill="#FFFFFF" height="64" width="100%" x="0" y="560"></rect><rect fill="#101010" height="8" width="100%" x="0" y="624"></rect><rect fill="#FFFFFF" height="64" width="100%" x="0" y="632"></rect><rect fill="#101010" height="64" width="100%" x="0" y="696"></rect><rect fill="#FFFFFF" height="64" width="100%" x="0" y="760"></rect><rect fill="#101010" height="8" width="100%" x="0" y="824"></rect></g>
      <g class="vertStripes" mask="url(#grating)"><rect fill="#FFFFFF" height="100%" width="8" x="0" y="0"></rect><rect fill="#101010" height="100%" width="8" x="8" y="0"></rect><rect fill="#FFFFFF" height="100%" width="64" x="16" y="0"></rect><rect fill="#101010" height="100%" width="64" x="80" y="0"></rect><rect fill="#FFFFFF" height="100%" width="64" x="144" y="0"></rect><rect fill="#101010" height="100%" width="8" x="208" y="0"></rect><rect fill="#FFFFFF" height="100%" width="64" x="216" y="0"></rect><rect fill="#101010" height="100%" width="64" x="280" y="0"></rect><rect fill="#FFFFFF" height="100%" width="8" x="344" y="0"></rect><rect fill="#101010" height="100%" width="8" x="352" y="0"></rect><rect fill="#FFFFFF" height="100%" width="8" x="360" y="0"></rect><rect fill="#101010" height="100%" width="8" x="368" y="0"></rect><rect fill="#FFFFFF" height="100%" width="88" x="376" y="0"></rect><rect fill="#101010" height="100%" width="8" x="464" y="0"></rect><rect fill="#FFFFFF" height="100%" width="8" x="472" y="0"></rect><rect fill="#101010" height="100%" width="8" x="480" y="0"></rect><rect fill="#FFFFFF" height="100%" width="8" x="488" y="0"></rect><rect fill="#101010" height="100%" width="64" x="496" y="0"></rect><rect fill="#FFFFFF" height="100%" width="64" x="560" y="0"></rect><rect fill="#101010" height="100%" width="8" x="624" y="0"></rect><rect fill="#FFFFFF" height="100%" width="64" x="632" y="0"></rect><rect fill="#101010" height="100%" width="64" x="696" y="0"></rect><rect fill="#FFFFFF" height="100%" width="64" x="760" y="0"></rect><rect fill="#101010" height="100%" width="8" x="824" y="0"></rect></g>
    </g>

    <g transform="translate(0, 1664)">
      <g class="horizStripes"><rect fill="#FFFFFF" height="8" width="100%" x="0" y="0"></rect><rect fill="#101010" height="8" width="100%" x="0" y="8"></rect><rect fill="#FFFFFF" height="64" width="100%" x="0" y="16"></rect><rect fill="#101010" height="64" width="100%" x="0" y="80"></rect><rect fill="#FFFFFF" height="64" width="100%" x="0" y="144"></rect><rect fill="#101010" height="8" width="100%" x="0" y="208"></rect><rect fill="#FFFFFF" height="64" width="100%" x="0" y="216"></rect><rect fill="#101010" height="64" width="100%" x="0" y="280"></rect><rect fill="#FFFFFF" height="8" width="100%" x="0" y="344"></rect><rect fill="#101010" height="8" width="100%" x="0" y="352"></rect><rect fill="#FFFFFF" height="8" width="100%" x="0" y="360"></rect><rect fill="#101010" height="8" width="100%" x="0" y="368"></rect><rect fill="#FFFFFF" height="88" width="100%" x="0" y="376"></rect><rect fill="#101010" height="8" width="100%" x="0" y="464"></rect><rect fill="#FFFFFF" height="8" width="100%" x="0" y="472"></rect><rect fill="#101010" height="8" width="100%" x="0" y="480"></rect><rect fill="#FFFFFF" height="8" width="100%" x="0" y="488"></rect><rect fill="#101010" height="64" width="100%" x="0" y="496"></rect><rect fill="#FFFFFF" height="64" width="100%" x="0" y="560"></rect><rect fill="#101010" height="8" width="100%" x="0" y="624"></rect><rect fill="#FFFFFF" height="64" width="100%" x="0" y="632"></rect><rect fill="#101010" height="64" width="100%" x="0" y="696"></rect><rect fill="#FFFFFF" height="64" width="100%" x="0" y="760"></rect><rect fill="#101010" height="8" width="100%" x="0" y="824"></rect></g>
      <g class="vertStripes" mask="url(#grating)"><rect fill="#FFFFFF" height="100%" width="8" x="0" y="0"></rect><rect fill="#101010" height="100%" width="8" x="8" y="0"></rect><rect fill="#FFFFFF" height="100%" width="64" x="16" y="0"></rect><rect fill="#101010" height="100%" width="64" x="80" y="0"></rect><rect fill="#FFFFFF" height="100%" width="64" x="144" y="0"></rect><rect fill="#101010" height="100%" width="8" x="208" y="0"></rect><rect fill="#FFFFFF" height="100%" width="64" x="216" y="0"></rect><rect fill="#101010" height="100%" width="64" x="280" y="0"></rect><rect fill="#FFFFFF" height="100%" width="8" x="344" y="0"></rect><rect fill="#101010" height="100%" width="8" x="352" y="0"></rect><rect fill="#FFFFFF" height="100%" width="8" x="360" y="0"></rect><rect fill="#101010" height="100%" width="8" x="368" y="0"></rect><rect fill="#FFFFFF" height="100%" width="88" x="376" y="0"></rect><rect fill="#101010" height="100%" width="8" x="464" y="0"></rect><rect fill="#FFFFFF" height="100%" width="8" x="472" y="0"></rect><rect fill="#101010" height="100%" width="8" x="480" y="0"></rect><rect fill="#FFFFFF" height="100%" width="8" x="488" y="0"></rect><rect fill="#101010" height="100%" width="64" x="496" y="0"></rect><rect fill="#FFFFFF" height="100%" width="64" x="560" y="0"></rect><rect fill="#101010" height="100%" width="8" x="624" y="0"></rect><rect fill="#FFFFFF" height="100%" width="64" x="632" y="0"></rect><rect fill="#101010" height="100%" width="64" x="696" y="0"></rect><rect fill="#FFFFFF" height="100%" width="64" x="760" y="0"></rect><rect fill="#101010" height="100%" width="8" x="824" y="0"></rect></g>
    </g>

    <g transform="translate(832, 1664)">
      <g class="horizStripes"><rect fill="#FFFFFF" height="8" width="100%" x="0" y="0"></rect><rect fill="#101010" height="8" width="100%" x="0" y="8"></rect><rect fill="#FFFFFF" height="64" width="100%" x="0" y="16"></rect><rect fill="#101010" height="64" width="100%" x="0" y="80"></rect><rect fill="#FFFFFF" height="64" width="100%" x="0" y="144"></rect><rect fill="#101010" height="8" width="100%" x="0" y="208"></rect><rect fill="#FFFFFF" height="64" width="100%" x="0" y="216"></rect><rect fill="#101010" height="64" width="100%" x="0" y="280"></rect><rect fill="#FFFFFF" height="8" width="100%" x="0" y="344"></rect><rect fill="#101010" height="8" width="100%" x="0" y="352"></rect><rect fill="#FFFFFF" height="8" width="100%" x="0" y="360"></rect><rect fill="#101010" height="8" width="100%" x="0" y="368"></rect><rect fill="#FFFFFF" height="88" width="100%" x="0" y="376"></rect><rect fill="#101010" height="8" width="100%" x="0" y="464"></rect><rect fill="#FFFFFF" height="8" width="100%" x="0" y="472"></rect><rect fill="#101010" height="8" width="100%" x="0" y="480"></rect><rect fill="#FFFFFF" height="8" width="100%" x="0" y="488"></rect><rect fill="#101010" height="64" width="100%" x="0" y="496"></rect><rect fill="#FFFFFF" height="64" width="100%" x="0" y="560"></rect><rect fill="#101010" height="8" width="100%" x="0" y="624"></rect><rect fill="#FFFFFF" height="64" width="100%" x="0" y="632"></rect><rect fill="#101010" height="64" width="100%" x="0" y="696"></rect><rect fill="#FFFFFF" height="64" width="100%" x="0" y="760"></rect><rect fill="#101010" height="8" width="100%" x="0" y="824"></rect></g>
      <g class="vertStripes" mask="url(#grating)"><rect fill="#FFFFFF" height="100%" width="8" x="0" y="0"></rect><rect fill="#101010" height="100%" width="8" x="8" y="0"></rect><rect fill="#FFFFFF" height="100%" width="64" x="16" y="0"></rect><rect fill="#101010" height="100%" width="64" x="80" y="0"></rect><rect fill="#FFFFFF" height="100%" width="64" x="144" y="0"></rect><rect fill="#101010" height="100%" width="8" x="208" y="0"></rect><rect fill="#FFFFFF" height="100%" width="64" x="216" y="0"></rect><rect fill="#101010" height="100%" width="64" x="280" y="0"></rect><rect fill="#FFFFFF" height="100%" width="8" x="344" y="0"></rect><rect fill="#101010" height="100%" width="8" x="352" y="0"></rect><rect fill="#FFFFFF" height="100%" width="8" x="360" y="0"></rect><rect fill="#101010" height="100%" width="8" x="368" y="0"></rect><rect fill="#FFFFFF" height="100%" width="88" x="376" y="0"></rect><rect fill="#101010" height="100%" width="8" x="464" y="0"></rect><rect fill="#FFFFFF" height="100%" width="8" x="472" y="0"></rect><rect fill="#101010" height="100%" width="8" x="480" y="0"></rect><rect fill="#FFFFFF" height="100%" width="8" x="488" y="0"></rect><rect fill="#101010" height="100%" width="64" x="496" y="0"></rect><rect fill="#FFFFFF" height="100%" width="64" x="560" y="0"></rect><rect fill="#101010" height="100%" width="8" x="624" y="0"></rect><rect fill="#FFFFFF" height="100%" width="64" x="632" y="0"></rect><rect fill="#101010" height="100%" width="64" x="696" y="0"></rect><rect fill="#FFFFFF" height="100%" width="64" x="760" y="0"></rect><rect fill="#101010" height="100%" width="8" x="824" y="0"></rect></g>
    </g>

    <g transform="translate(1664, 1664)">
      <g class="horizStripes"><rect fill="#FFFFFF" height="8" width="100%" x="0" y="0"></rect><rect fill="#101010" height="8" width="100%" x="0" y="8"></rect><rect fill="#FFFFFF" height="64" width="100%" x="0" y="16"></rect><rect fill="#101010" height="64" width="100%" x="0" y="80"></rect><rect fill="#FFFFFF" height="64" width="100%" x="0" y="144"></rect><rect fill="#101010" height="8" width="100%" x="0" y="208"></rect><rect fill="#FFFFFF" height="64" width="100%" x="0" y="216"></rect><rect fill="#101010" height="64" width="100%" x="0" y="280"></rect><rect fill="#FFFFFF" height="8" width="100%" x="0" y="344"></rect><rect fill="#101010" height="8" width="100%" x="0" y="352"></rect><rect fill="#FFFFFF" height="8" width="100%" x="0" y="360"></rect><rect fill="#101010" height="8" width="100%" x="0" y="368"></rect><rect fill="#FFFFFF" height="88" width="100%" x="0" y="376"></rect><rect fill="#101010" height="8" width="100%" x="0" y="464"></rect><rect fill="#FFFFFF" height="8" width="100%" x="0" y="472"></rect><rect fill="#101010" height="8" width="100%" x="0" y="480"></rect><rect fill="#FFFFFF" height="8" width="100%" x="0" y="488"></rect><rect fill="#101010" height="64" width="100%" x="0" y="496"></rect><rect fill="#FFFFFF" height="64" width="100%" x="0" y="560"></rect><rect fill="#101010" height="8" width="100%" x="0" y="624"></rect><rect fill="#FFFFFF" height="64" width="100%" x="0" y="632"></rect><rect fill="#101010" height="64" width="100%" x="0" y="696"></rect><rect fill="#FFFFFF" height="64" width="100%" x="0" y="760"></rect><rect fill="#101010" height="8" width="100%" x="0" y="824"></rect></g>
      <g class="vertStripes" mask="url(#grating)"><rect fill="#FFFFFF" height="100%" width="8" x="0" y="0"></rect><rect fill="#101010" height="100%" width="8" x="8" y="0"></rect><rect fill="#FFFFFF" height="100%" width="64" x="16" y="0"></rect><rect fill="#101010" height="100%" width="64" x="80" y="0"></rect><rect fill="#FFFFFF" height="100%" width="64" x="144" y="0"></rect><rect fill="#101010" height="100%" width="8" x="208" y="0"></rect><rect fill="#FFFFFF" height="100%" width="64" x="216" y="0"></rect><rect fill="#101010" height="100%" width="64" x="280" y="0"></rect><rect fill="#FFFFFF" height="100%" width="8" x="344" y="0"></rect><rect fill="#101010" height="100%" width="8" x="352" y="0"></rect><rect fill="#FFFFFF" height="100%" width="8" x="360" y="0"></rect><rect fill="#101010" height="100%" width="8" x="368" y="0"></rect><rect fill="#FFFFFF" height="100%" width="88" x="376" y="0"></rect><rect fill="#101010" height="100%" width="8" x="464" y="0"></rect><rect fill="#FFFFFF" height="100%" width="8" x="472" y="0"></rect><rect fill="#101010" height="100%" width="8" x="480" y="0"></rect><rect fill="#FFFFFF" height="100%" width="8" x="488" y="0"></rect><rect fill="#101010" height="100%" width="64" x="496" y="0"></rect><rect fill="#FFFFFF" height="100%" width="64" x="560" y="0"></rect><rect fill="#101010" height="100%" width="8" x="624" y="0"></rect><rect fill="#FFFFFF" height="100%" width="64" x="632" y="0"></rect><rect fill="#101010" height="100%" width="64" x="696" y="0"></rect><rect fill="#FFFFFF" height="100%" width="64" x="760" y="0"></rect><rect fill="#101010" height="100%" width="8" x="824" y="0"></rect></g>
    </g>
  </g>
</svg>