<svg viewBox="0 0 832 832" width="832" height="832" xmlns="http://www.w3.org/2000/svg">
  <defs>
    <pattern id="pattern" x="0" y="0" width="8" height="8" patternUnits="userSpaceOnUse">
      <polygon points="0,4 0,8 8,0 4,0" fill="#ffffff"></polygon>
      <polygon points="4,8 8,8 8,4" fill="#ffffff"></polygon>
    </pattern>
    <mask id="grating" x="0" y="0" width="1" height="1">
      <rect x="0" y="0" width="100%" height="100%" fill="url(#pattern)"></rect>
    </mask>
  </defs>
  <clipPath id="dimensionClip">
    <rect x="0" y="0" width="832" height="832" />
  </clipPath>
  <g id="tartan" clip-path="url(#dimensionClip)">
    <g transform="translate(0, 0)">
      <g class="horizStripes"><rect fill="#202060" height="88" width="100%" x="0" y="0"></rect><rect fill="#101010" height="8" width="100%" x="0" y="88"></rect><rect fill="#202060" height="8" width="100%" x="0" y="96"></rect><rect fill="#101010" height="8" width="100%" x="0" y="104"></rect><rect fill="#202060" height="8" width="100%" x="0" y="112"></rect><rect fill="#101010" height="64" width="100%" x="0" y="120"></rect><rect fill="#006818" height="64" width="100%" x="0" y="184"></rect><rect fill="#101010" height="8" width="100%" x="0" y="248"></rect><rect fill="#006818" height="64" width="100%" x="0" y="256"></rect><rect fill="#101010" height="64" width="100%" x="0" y="320"></rect><rect fill="#202060" height="64" width="100%" x="0" y="384"></rect><rect fill="#101010" height="8" width="100%" x="0" y="448"></rect><rect fill="#202060" height="8" width="100%" x="0" y="456"></rect><rect fill="#101010" height="8" width="100%" x="0" y="464"></rect><rect fill="#202060" height="64" width="100%" x="0" y="472"></rect><rect fill="#101010" height="64" width="100%" x="0" y="536"></rect><rect fill="#006818" height="64" width="100%" x="0" y="600"></rect><rect fill="#101010" height="8" width="100%" x="0" y="664"></rect><rect fill="#006818" height="64" width="100%" x="0" y="672"></rect><rect fill="#101010" height="64" width="100%" x="0" y="736"></rect><rect fill="#202060" height="8" width="100%" x="0" y="800"></rect><rect fill="#101010" height="8" width="100%" x="0" y="808"></rect><rect fill="#202060" height="8" width="100%" x="0" y="816"></rect><rect fill="#101010" height="8" width="100%" x="0" y="824"></rect></g>
      <g class="vertStripes" mask="url(#grating)"><rect fill="#202060" height="100%" width="88" x="0" y="0"></rect><rect fill="#101010" height="100%" width="8" x="88" y="0"></rect><rect fill="#202060" height="100%" width="8" x="96" y="0"></rect><rect fill="#101010" height="100%" width="8" x="104" y="0"></rect><rect fill="#202060" height="100%" width="8" x="112" y="0"></rect><rect fill="#101010" height="100%" width="64" x="120" y="0"></rect><rect fill="#006818" height="100%" width="64" x="184" y="0"></rect><rect fill="#101010" height="100%" width="8" x="248" y="0"></rect><rect fill="#006818" height="100%" width="64" x="256" y="0"></rect><rect fill="#101010" height="100%" width="64" x="320" y="0"></rect><rect fill="#202060" height="100%" width="64" x="384" y="0"></rect><rect fill="#101010" height="100%" width="8" x="448" y="0"></rect><rect fill="#202060" height="100%" width="8" x="456" y="0"></rect><rect fill="#101010" height="100%" width="8" x="464" y="0"></rect><rect fill="#202060" height="100%" width="64" x="472" y="0"></rect><rect fill="#101010" height="100%" width="64" x="536" y="0"></rect><rect fill="#006818" height="100%" width="64" x="600" y="0"></rect><rect fill="#101010" height="100%" width="8" x="664" y="0"></rect><rect fill="#006818" height="100%" width="64" x="672" y="0"></rect><rect fill="#101010" height="100%" width="64" x="736" y="0"></rect><rect fill="#202060" height="100%" width="8" x="800" y="0"></rect><rect fill="#101010" height="100%" width="8" x="808" y="0"></rect><rect fill="#202060" height="100%" width="8" x="816" y="0"></rect><rect fill="#101010" height="100%" width="8" x="824" y="0"></rect></g>
    </g>
  </g>
</svg>