<svg viewBox="0 0 2560 2560" width="2560" height="2560" xmlns="http://www.w3.org/2000/svg">
  <defs>
    <pattern id="pattern" x="0" y="0" width="8" height="8" patternUnits="userSpaceOnUse">
      <polygon points="0,4 0,8 8,0 4,0" fill="#ffffff"></polygon>
      <polygon points="4,8 8,8 8,4" fill="#ffffff"></polygon>
    </pattern>
    <mask id="grating" x="0" y="0" width="1" height="1">
      <rect x="0" y="0" width="100%" height="100%" fill="url(#pattern)"></rect>
    </mask>
  </defs>
  <clipPath id="dimensionClip">
    <rect x="0" y="0" width="2560" height="2560" />
  </clipPath>
  <g id="tartan" clip-path="url(#dimensionClip)">
    <g transform="translate(0, 0)">
      <g class="horizStripes"><rect fill="#1C1C50" height="16" width="100%" x="0" y="0"></rect><rect fill="#000000" height="16" width="100%" x="0" y="16"></rect><rect fill="#1C1C50" height="96" width="100%" x="0" y="32"></rect><rect fill="#000000" height="96" width="100%" x="0" y="128"></rect><rect fill="#285800" height="96" width="100%" x="0" y="224"></rect><rect fill="#000000" height="16" width="100%" x="0" y="320"></rect><rect fill="#285800" height="96" width="100%" x="0" y="336"></rect><rect fill="#000000" height="96" width="100%" x="0" y="432"></rect><rect fill="#1C1C50" height="96" width="100%" x="0" y="528"></rect><rect fill="#000000" height="16" width="100%" x="0" y="624"></rect></g>
      <g class="vertStripes" mask="url(#grating)"><rect fill="#1C1C50" height="100%" width="16" x="0" y="0"></rect><rect fill="#000000" height="100%" width="16" x="16" y="0"></rect><rect fill="#1C1C50" height="100%" width="96" x="32" y="0"></rect><rect fill="#000000" height="100%" width="96" x="128" y="0"></rect><rect fill="#285800" height="100%" width="96" x="224" y="0"></rect><rect fill="#000000" height="100%" width="16" x="320" y="0"></rect><rect fill="#285800" height="100%" width="96" x="336" y="0"></rect><rect fill="#000000" height="100%" width="96" x="432" y="0"></rect><rect fill="#1C1C50" height="100%" width="96" x="528" y="0"></rect><rect fill="#000000" height="100%" width="16" x="624" y="0"></rect></g>
    </g>

    <g transform="translate(640, 0)">
      <g class="horizStripes"><rect fill="#1C1C50" height="16" width="100%" x="0" y="0"></rect><rect fill="#000000" height="16" width="100%" x="0" y="16"></rect><rect fill="#1C1C50" height="96" width="100%" x="0" y="32"></rect><rect fill="#000000" height="96" width="100%" x="0" y="128"></rect><rect fill="#285800" height="96" width="100%" x="0" y="224"></rect><rect fill="#000000" height="16" width="100%" x="0" y="320"></rect><rect fill="#285800" height="96" width="100%" x="0" y="336"></rect><rect fill="#000000" height="96" width="100%" x="0" y="432"></rect><rect fill="#1C1C50" height="96" width="100%" x="0" y="528"></rect><rect fill="#000000" height="16" width="100%" x="0" y="624"></rect></g>
      <g class="vertStripes" mask="url(#grating)"><rect fill="#1C1C50" height="100%" width="16" x="0" y="0"></rect><rect fill="#000000" height="100%" width="16" x="16" y="0"></rect><rect fill="#1C1C50" height="100%" width="96" x="32" y="0"></rect><rect fill="#000000" height="100%" width="96" x="128" y="0"></rect><rect fill="#285800" height="100%" width="96" x="224" y="0"></rect><rect fill="#000000" height="100%" width="16" x="320" y="0"></rect><rect fill="#285800" height="100%" width="96" x="336" y="0"></rect><rect fill="#000000" height="100%" width="96" x="432" y="0"></rect><rect fill="#1C1C50" height="100%" width="96" x="528" y="0"></rect><rect fill="#000000" height="100%" width="16" x="624" y="0"></rect></g>
    </g>

    <g transform="translate(1280, 0)">
      <g class="horizStripes"><rect fill="#1C1C50" height="16" width="100%" x="0" y="0"></rect><rect fill="#000000" height="16" width="100%" x="0" y="16"></rect><rect fill="#1C1C50" height="96" width="100%" x="0" y="32"></rect><rect fill="#000000" height="96" width="100%" x="0" y="128"></rect><rect fill="#285800" height="96" width="100%" x="0" y="224"></rect><rect fill="#000000" height="16" width="100%" x="0" y="320"></rect><rect fill="#285800" height="96" width="100%" x="0" y="336"></rect><rect fill="#000000" height="96" width="100%" x="0" y="432"></rect><rect fill="#1C1C50" height="96" width="100%" x="0" y="528"></rect><rect fill="#000000" height="16" width="100%" x="0" y="624"></rect></g>
      <g class="vertStripes" mask="url(#grating)"><rect fill="#1C1C50" height="100%" width="16" x="0" y="0"></rect><rect fill="#000000" height="100%" width="16" x="16" y="0"></rect><rect fill="#1C1C50" height="100%" width="96" x="32" y="0"></rect><rect fill="#000000" height="100%" width="96" x="128" y="0"></rect><rect fill="#285800" height="100%" width="96" x="224" y="0"></rect><rect fill="#000000" height="100%" width="16" x="320" y="0"></rect><rect fill="#285800" height="100%" width="96" x="336" y="0"></rect><rect fill="#000000" height="100%" width="96" x="432" y="0"></rect><rect fill="#1C1C50" height="100%" width="96" x="528" y="0"></rect><rect fill="#000000" height="100%" width="16" x="624" y="0"></rect></g>
    </g>

    <g transform="translate(1920, 0)">
      <g class="horizStripes"><rect fill="#1C1C50" height="16" width="100%" x="0" y="0"></rect><rect fill="#000000" height="16" width="100%" x="0" y="16"></rect><rect fill="#1C1C50" height="96" width="100%" x="0" y="32"></rect><rect fill="#000000" height="96" width="100%" x="0" y="128"></rect><rect fill="#285800" height="96" width="100%" x="0" y="224"></rect><rect fill="#000000" height="16" width="100%" x="0" y="320"></rect><rect fill="#285800" height="96" width="100%" x="0" y="336"></rect><rect fill="#000000" height="96" width="100%" x="0" y="432"></rect><rect fill="#1C1C50" height="96" width="100%" x="0" y="528"></rect><rect fill="#000000" height="16" width="100%" x="0" y="624"></rect></g>
      <g class="vertStripes" mask="url(#grating)"><rect fill="#1C1C50" height="100%" width="16" x="0" y="0"></rect><rect fill="#000000" height="100%" width="16" x="16" y="0"></rect><rect fill="#1C1C50" height="100%" width="96" x="32" y="0"></rect><rect fill="#000000" height="100%" width="96" x="128" y="0"></rect><rect fill="#285800" height="100%" width="96" x="224" y="0"></rect><rect fill="#000000" height="100%" width="16" x="320" y="0"></rect><rect fill="#285800" height="100%" width="96" x="336" y="0"></rect><rect fill="#000000" height="100%" width="96" x="432" y="0"></rect><rect fill="#1C1C50" height="100%" width="96" x="528" y="0"></rect><rect fill="#000000" height="100%" width="16" x="624" y="0"></rect></g>
    </g>

    <g transform="translate(0, 640)">
      <g class="horizStripes"><rect fill="#1C1C50" height="16" width="100%" x="0" y="0"></rect><rect fill="#000000" height="16" width="100%" x="0" y="16"></rect><rect fill="#1C1C50" height="96" width="100%" x="0" y="32"></rect><rect fill="#000000" height="96" width="100%" x="0" y="128"></rect><rect fill="#285800" height="96" width="100%" x="0" y="224"></rect><rect fill="#000000" height="16" width="100%" x="0" y="320"></rect><rect fill="#285800" height="96" width="100%" x="0" y="336"></rect><rect fill="#000000" height="96" width="100%" x="0" y="432"></rect><rect fill="#1C1C50" height="96" width="100%" x="0" y="528"></rect><rect fill="#000000" height="16" width="100%" x="0" y="624"></rect></g>
      <g class="vertStripes" mask="url(#grating)"><rect fill="#1C1C50" height="100%" width="16" x="0" y="0"></rect><rect fill="#000000" height="100%" width="16" x="16" y="0"></rect><rect fill="#1C1C50" height="100%" width="96" x="32" y="0"></rect><rect fill="#000000" height="100%" width="96" x="128" y="0"></rect><rect fill="#285800" height="100%" width="96" x="224" y="0"></rect><rect fill="#000000" height="100%" width="16" x="320" y="0"></rect><rect fill="#285800" height="100%" width="96" x="336" y="0"></rect><rect fill="#000000" height="100%" width="96" x="432" y="0"></rect><rect fill="#1C1C50" height="100%" width="96" x="528" y="0"></rect><rect fill="#000000" height="100%" width="16" x="624" y="0"></rect></g>
    </g>

    <g transform="translate(640, 640)">
      <g class="horizStripes"><rect fill="#1C1C50" height="16" width="100%" x="0" y="0"></rect><rect fill="#000000" height="16" width="100%" x="0" y="16"></rect><rect fill="#1C1C50" height="96" width="100%" x="0" y="32"></rect><rect fill="#000000" height="96" width="100%" x="0" y="128"></rect><rect fill="#285800" height="96" width="100%" x="0" y="224"></rect><rect fill="#000000" height="16" width="100%" x="0" y="320"></rect><rect fill="#285800" height="96" width="100%" x="0" y="336"></rect><rect fill="#000000" height="96" width="100%" x="0" y="432"></rect><rect fill="#1C1C50" height="96" width="100%" x="0" y="528"></rect><rect fill="#000000" height="16" width="100%" x="0" y="624"></rect></g>
      <g class="vertStripes" mask="url(#grating)"><rect fill="#1C1C50" height="100%" width="16" x="0" y="0"></rect><rect fill="#000000" height="100%" width="16" x="16" y="0"></rect><rect fill="#1C1C50" height="100%" width="96" x="32" y="0"></rect><rect fill="#000000" height="100%" width="96" x="128" y="0"></rect><rect fill="#285800" height="100%" width="96" x="224" y="0"></rect><rect fill="#000000" height="100%" width="16" x="320" y="0"></rect><rect fill="#285800" height="100%" width="96" x="336" y="0"></rect><rect fill="#000000" height="100%" width="96" x="432" y="0"></rect><rect fill="#1C1C50" height="100%" width="96" x="528" y="0"></rect><rect fill="#000000" height="100%" width="16" x="624" y="0"></rect></g>
    </g>

    <g transform="translate(1280, 640)">
      <g class="horizStripes"><rect fill="#1C1C50" height="16" width="100%" x="0" y="0"></rect><rect fill="#000000" height="16" width="100%" x="0" y="16"></rect><rect fill="#1C1C50" height="96" width="100%" x="0" y="32"></rect><rect fill="#000000" height="96" width="100%" x="0" y="128"></rect><rect fill="#285800" height="96" width="100%" x="0" y="224"></rect><rect fill="#000000" height="16" width="100%" x="0" y="320"></rect><rect fill="#285800" height="96" width="100%" x="0" y="336"></rect><rect fill="#000000" height="96" width="100%" x="0" y="432"></rect><rect fill="#1C1C50" height="96" width="100%" x="0" y="528"></rect><rect fill="#000000" height="16" width="100%" x="0" y="624"></rect></g>
      <g class="vertStripes" mask="url(#grating)"><rect fill="#1C1C50" height="100%" width="16" x="0" y="0"></rect><rect fill="#000000" height="100%" width="16" x="16" y="0"></rect><rect fill="#1C1C50" height="100%" width="96" x="32" y="0"></rect><rect fill="#000000" height="100%" width="96" x="128" y="0"></rect><rect fill="#285800" height="100%" width="96" x="224" y="0"></rect><rect fill="#000000" height="100%" width="16" x="320" y="0"></rect><rect fill="#285800" height="100%" width="96" x="336" y="0"></rect><rect fill="#000000" height="100%" width="96" x="432" y="0"></rect><rect fill="#1C1C50" height="100%" width="96" x="528" y="0"></rect><rect fill="#000000" height="100%" width="16" x="624" y="0"></rect></g>
    </g>

    <g transform="translate(1920, 640)">
      <g class="horizStripes"><rect fill="#1C1C50" height="16" width="100%" x="0" y="0"></rect><rect fill="#000000" height="16" width="100%" x="0" y="16"></rect><rect fill="#1C1C50" height="96" width="100%" x="0" y="32"></rect><rect fill="#000000" height="96" width="100%" x="0" y="128"></rect><rect fill="#285800" height="96" width="100%" x="0" y="224"></rect><rect fill="#000000" height="16" width="100%" x="0" y="320"></rect><rect fill="#285800" height="96" width="100%" x="0" y="336"></rect><rect fill="#000000" height="96" width="100%" x="0" y="432"></rect><rect fill="#1C1C50" height="96" width="100%" x="0" y="528"></rect><rect fill="#000000" height="16" width="100%" x="0" y="624"></rect></g>
      <g class="vertStripes" mask="url(#grating)"><rect fill="#1C1C50" height="100%" width="16" x="0" y="0"></rect><rect fill="#000000" height="100%" width="16" x="16" y="0"></rect><rect fill="#1C1C50" height="100%" width="96" x="32" y="0"></rect><rect fill="#000000" height="100%" width="96" x="128" y="0"></rect><rect fill="#285800" height="100%" width="96" x="224" y="0"></rect><rect fill="#000000" height="100%" width="16" x="320" y="0"></rect><rect fill="#285800" height="100%" width="96" x="336" y="0"></rect><rect fill="#000000" height="100%" width="96" x="432" y="0"></rect><rect fill="#1C1C50" height="100%" width="96" x="528" y="0"></rect><rect fill="#000000" height="100%" width="16" x="624" y="0"></rect></g>
    </g>

    <g transform="translate(0, 1280)">
      <g class="horizStripes"><rect fill="#1C1C50" height="16" width="100%" x="0" y="0"></rect><rect fill="#000000" height="16" width="100%" x="0" y="16"></rect><rect fill="#1C1C50" height="96" width="100%" x="0" y="32"></rect><rect fill="#000000" height="96" width="100%" x="0" y="128"></rect><rect fill="#285800" height="96" width="100%" x="0" y="224"></rect><rect fill="#000000" height="16" width="100%" x="0" y="320"></rect><rect fill="#285800" height="96" width="100%" x="0" y="336"></rect><rect fill="#000000" height="96" width="100%" x="0" y="432"></rect><rect fill="#1C1C50" height="96" width="100%" x="0" y="528"></rect><rect fill="#000000" height="16" width="100%" x="0" y="624"></rect></g>
      <g class="vertStripes" mask="url(#grating)"><rect fill="#1C1C50" height="100%" width="16" x="0" y="0"></rect><rect fill="#000000" height="100%" width="16" x="16" y="0"></rect><rect fill="#1C1C50" height="100%" width="96" x="32" y="0"></rect><rect fill="#000000" height="100%" width="96" x="128" y="0"></rect><rect fill="#285800" height="100%" width="96" x="224" y="0"></rect><rect fill="#000000" height="100%" width="16" x="320" y="0"></rect><rect fill="#285800" height="100%" width="96" x="336" y="0"></rect><rect fill="#000000" height="100%" width="96" x="432" y="0"></rect><rect fill="#1C1C50" height="100%" width="96" x="528" y="0"></rect><rect fill="#000000" height="100%" width="16" x="624" y="0"></rect></g>
    </g>

    <g transform="translate(640, 1280)">
      <g class="horizStripes"><rect fill="#1C1C50" height="16" width="100%" x="0" y="0"></rect><rect fill="#000000" height="16" width="100%" x="0" y="16"></rect><rect fill="#1C1C50" height="96" width="100%" x="0" y="32"></rect><rect fill="#000000" height="96" width="100%" x="0" y="128"></rect><rect fill="#285800" height="96" width="100%" x="0" y="224"></rect><rect fill="#000000" height="16" width="100%" x="0" y="320"></rect><rect fill="#285800" height="96" width="100%" x="0" y="336"></rect><rect fill="#000000" height="96" width="100%" x="0" y="432"></rect><rect fill="#1C1C50" height="96" width="100%" x="0" y="528"></rect><rect fill="#000000" height="16" width="100%" x="0" y="624"></rect></g>
      <g class="vertStripes" mask="url(#grating)"><rect fill="#1C1C50" height="100%" width="16" x="0" y="0"></rect><rect fill="#000000" height="100%" width="16" x="16" y="0"></rect><rect fill="#1C1C50" height="100%" width="96" x="32" y="0"></rect><rect fill="#000000" height="100%" width="96" x="128" y="0"></rect><rect fill="#285800" height="100%" width="96" x="224" y="0"></rect><rect fill="#000000" height="100%" width="16" x="320" y="0"></rect><rect fill="#285800" height="100%" width="96" x="336" y="0"></rect><rect fill="#000000" height="100%" width="96" x="432" y="0"></rect><rect fill="#1C1C50" height="100%" width="96" x="528" y="0"></rect><rect fill="#000000" height="100%" width="16" x="624" y="0"></rect></g>
    </g>

    <g transform="translate(1280, 1280)">
      <g class="horizStripes"><rect fill="#1C1C50" height="16" width="100%" x="0" y="0"></rect><rect fill="#000000" height="16" width="100%" x="0" y="16"></rect><rect fill="#1C1C50" height="96" width="100%" x="0" y="32"></rect><rect fill="#000000" height="96" width="100%" x="0" y="128"></rect><rect fill="#285800" height="96" width="100%" x="0" y="224"></rect><rect fill="#000000" height="16" width="100%" x="0" y="320"></rect><rect fill="#285800" height="96" width="100%" x="0" y="336"></rect><rect fill="#000000" height="96" width="100%" x="0" y="432"></rect><rect fill="#1C1C50" height="96" width="100%" x="0" y="528"></rect><rect fill="#000000" height="16" width="100%" x="0" y="624"></rect></g>
      <g class="vertStripes" mask="url(#grating)"><rect fill="#1C1C50" height="100%" width="16" x="0" y="0"></rect><rect fill="#000000" height="100%" width="16" x="16" y="0"></rect><rect fill="#1C1C50" height="100%" width="96" x="32" y="0"></rect><rect fill="#000000" height="100%" width="96" x="128" y="0"></rect><rect fill="#285800" height="100%" width="96" x="224" y="0"></rect><rect fill="#000000" height="100%" width="16" x="320" y="0"></rect><rect fill="#285800" height="100%" width="96" x="336" y="0"></rect><rect fill="#000000" height="100%" width="96" x="432" y="0"></rect><rect fill="#1C1C50" height="100%" width="96" x="528" y="0"></rect><rect fill="#000000" height="100%" width="16" x="624" y="0"></rect></g>
    </g>

    <g transform="translate(1920, 1280)">
      <g class="horizStripes"><rect fill="#1C1C50" height="16" width="100%" x="0" y="0"></rect><rect fill="#000000" height="16" width="100%" x="0" y="16"></rect><rect fill="#1C1C50" height="96" width="100%" x="0" y="32"></rect><rect fill="#000000" height="96" width="100%" x="0" y="128"></rect><rect fill="#285800" height="96" width="100%" x="0" y="224"></rect><rect fill="#000000" height="16" width="100%" x="0" y="320"></rect><rect fill="#285800" height="96" width="100%" x="0" y="336"></rect><rect fill="#000000" height="96" width="100%" x="0" y="432"></rect><rect fill="#1C1C50" height="96" width="100%" x="0" y="528"></rect><rect fill="#000000" height="16" width="100%" x="0" y="624"></rect></g>
      <g class="vertStripes" mask="url(#grating)"><rect fill="#1C1C50" height="100%" width="16" x="0" y="0"></rect><rect fill="#000000" height="100%" width="16" x="16" y="0"></rect><rect fill="#1C1C50" height="100%" width="96" x="32" y="0"></rect><rect fill="#000000" height="100%" width="96" x="128" y="0"></rect><rect fill="#285800" height="100%" width="96" x="224" y="0"></rect><rect fill="#000000" height="100%" width="16" x="320" y="0"></rect><rect fill="#285800" height="100%" width="96" x="336" y="0"></rect><rect fill="#000000" height="100%" width="96" x="432" y="0"></rect><rect fill="#1C1C50" height="100%" width="96" x="528" y="0"></rect><rect fill="#000000" height="100%" width="16" x="624" y="0"></rect></g>
    </g>

    <g transform="translate(0, 1920)">
      <g class="horizStripes"><rect fill="#1C1C50" height="16" width="100%" x="0" y="0"></rect><rect fill="#000000" height="16" width="100%" x="0" y="16"></rect><rect fill="#1C1C50" height="96" width="100%" x="0" y="32"></rect><rect fill="#000000" height="96" width="100%" x="0" y="128"></rect><rect fill="#285800" height="96" width="100%" x="0" y="224"></rect><rect fill="#000000" height="16" width="100%" x="0" y="320"></rect><rect fill="#285800" height="96" width="100%" x="0" y="336"></rect><rect fill="#000000" height="96" width="100%" x="0" y="432"></rect><rect fill="#1C1C50" height="96" width="100%" x="0" y="528"></rect><rect fill="#000000" height="16" width="100%" x="0" y="624"></rect></g>
      <g class="vertStripes" mask="url(#grating)"><rect fill="#1C1C50" height="100%" width="16" x="0" y="0"></rect><rect fill="#000000" height="100%" width="16" x="16" y="0"></rect><rect fill="#1C1C50" height="100%" width="96" x="32" y="0"></rect><rect fill="#000000" height="100%" width="96" x="128" y="0"></rect><rect fill="#285800" height="100%" width="96" x="224" y="0"></rect><rect fill="#000000" height="100%" width="16" x="320" y="0"></rect><rect fill="#285800" height="100%" width="96" x="336" y="0"></rect><rect fill="#000000" height="100%" width="96" x="432" y="0"></rect><rect fill="#1C1C50" height="100%" width="96" x="528" y="0"></rect><rect fill="#000000" height="100%" width="16" x="624" y="0"></rect></g>
    </g>

    <g transform="translate(640, 1920)">
      <g class="horizStripes"><rect fill="#1C1C50" height="16" width="100%" x="0" y="0"></rect><rect fill="#000000" height="16" width="100%" x="0" y="16"></rect><rect fill="#1C1C50" height="96" width="100%" x="0" y="32"></rect><rect fill="#000000" height="96" width="100%" x="0" y="128"></rect><rect fill="#285800" height="96" width="100%" x="0" y="224"></rect><rect fill="#000000" height="16" width="100%" x="0" y="320"></rect><rect fill="#285800" height="96" width="100%" x="0" y="336"></rect><rect fill="#000000" height="96" width="100%" x="0" y="432"></rect><rect fill="#1C1C50" height="96" width="100%" x="0" y="528"></rect><rect fill="#000000" height="16" width="100%" x="0" y="624"></rect></g>
      <g class="vertStripes" mask="url(#grating)"><rect fill="#1C1C50" height="100%" width="16" x="0" y="0"></rect><rect fill="#000000" height="100%" width="16" x="16" y="0"></rect><rect fill="#1C1C50" height="100%" width="96" x="32" y="0"></rect><rect fill="#000000" height="100%" width="96" x="128" y="0"></rect><rect fill="#285800" height="100%" width="96" x="224" y="0"></rect><rect fill="#000000" height="100%" width="16" x="320" y="0"></rect><rect fill="#285800" height="100%" width="96" x="336" y="0"></rect><rect fill="#000000" height="100%" width="96" x="432" y="0"></rect><rect fill="#1C1C50" height="100%" width="96" x="528" y="0"></rect><rect fill="#000000" height="100%" width="16" x="624" y="0"></rect></g>
    </g>

    <g transform="translate(1280, 1920)">
      <g class="horizStripes"><rect fill="#1C1C50" height="16" width="100%" x="0" y="0"></rect><rect fill="#000000" height="16" width="100%" x="0" y="16"></rect><rect fill="#1C1C50" height="96" width="100%" x="0" y="32"></rect><rect fill="#000000" height="96" width="100%" x="0" y="128"></rect><rect fill="#285800" height="96" width="100%" x="0" y="224"></rect><rect fill="#000000" height="16" width="100%" x="0" y="320"></rect><rect fill="#285800" height="96" width="100%" x="0" y="336"></rect><rect fill="#000000" height="96" width="100%" x="0" y="432"></rect><rect fill="#1C1C50" height="96" width="100%" x="0" y="528"></rect><rect fill="#000000" height="16" width="100%" x="0" y="624"></rect></g>
      <g class="vertStripes" mask="url(#grating)"><rect fill="#1C1C50" height="100%" width="16" x="0" y="0"></rect><rect fill="#000000" height="100%" width="16" x="16" y="0"></rect><rect fill="#1C1C50" height="100%" width="96" x="32" y="0"></rect><rect fill="#000000" height="100%" width="96" x="128" y="0"></rect><rect fill="#285800" height="100%" width="96" x="224" y="0"></rect><rect fill="#000000" height="100%" width="16" x="320" y="0"></rect><rect fill="#285800" height="100%" width="96" x="336" y="0"></rect><rect fill="#000000" height="100%" width="96" x="432" y="0"></rect><rect fill="#1C1C50" height="100%" width="96" x="528" y="0"></rect><rect fill="#000000" height="100%" width="16" x="624" y="0"></rect></g>
    </g>

    <g transform="translate(1920, 1920)">
      <g class="horizStripes"><rect fill="#1C1C50" height="16" width="100%" x="0" y="0"></rect><rect fill="#000000" height="16" width="100%" x="0" y="16"></rect><rect fill="#1C1C50" height="96" width="100%" x="0" y="32"></rect><rect fill="#000000" height="96" width="100%" x="0" y="128"></rect><rect fill="#285800" height="96" width="100%" x="0" y="224"></rect><rect fill="#000000" height="16" width="100%" x="0" y="320"></rect><rect fill="#285800" height="96" width="100%" x="0" y="336"></rect><rect fill="#000000" height="96" width="100%" x="0" y="432"></rect><rect fill="#1C1C50" height="96" width="100%" x="0" y="528"></rect><rect fill="#000000" height="16" width="100%" x="0" y="624"></rect></g>
      <g class="vertStripes" mask="url(#grating)"><rect fill="#1C1C50" height="100%" width="16" x="0" y="0"></rect><rect fill="#000000" height="100%" width="16" x="16" y="0"></rect><rect fill="#1C1C50" height="100%" width="96" x="32" y="0"></rect><rect fill="#000000" height="100%" width="96" x="128" y="0"></rect><rect fill="#285800" height="100%" width="96" x="224" y="0"></rect><rect fill="#000000" height="100%" width="16" x="320" y="0"></rect><rect fill="#285800" height="100%" width="96" x="336" y="0"></rect><rect fill="#000000" height="100%" width="96" x="432" y="0"></rect><rect fill="#1C1C50" height="100%" width="96" x="528" y="0"></rect><rect fill="#000000" height="100%" width="16" x="624" y="0"></rect></g>
    </g>
  </g>
</svg>