<svg viewBox="0 0 1664 1664" width="1664" height="1664" xmlns="http://www.w3.org/2000/svg">
  <defs>
    <pattern id="pattern" x="0" y="0" width="8" height="8" patternUnits="userSpaceOnUse">
      <polygon points="0,4 0,8 8,0 4,0" fill="#ffffff"></polygon>
      <polygon points="4,8 8,8 8,4" fill="#ffffff"></polygon>
    </pattern>
    <mask id="grating" x="0" y="0" width="1" height="1">
      <rect x="0" y="0" width="100%" height="100%" fill="url(#pattern)"></rect>
    </mask>
  </defs>
  <clipPath id="dimensionClip">
    <rect x="0" y="0" width="1664" height="1664" />
  </clipPath>
  <g id="tartan" clip-path="url(#dimensionClip)">
    <g transform="translate(0, 0)">
      <g class="horizStripes"><rect fill="#202060" height="176" width="100%" x="0" y="0"></rect><rect fill="#101010" height="16" width="100%" x="0" y="176"></rect><rect fill="#202060" height="16" width="100%" x="0" y="192"></rect><rect fill="#101010" height="16" width="100%" x="0" y="208"></rect><rect fill="#202060" height="16" width="100%" x="0" y="224"></rect><rect fill="#101010" height="128" width="100%" x="0" y="240"></rect><rect fill="#006818" height="128" width="100%" x="0" y="368"></rect><rect fill="#101010" height="16" width="100%" x="0" y="496"></rect><rect fill="#006818" height="128" width="100%" x="0" y="512"></rect><rect fill="#101010" height="128" width="100%" x="0" y="640"></rect><rect fill="#202060" height="128" width="100%" x="0" y="768"></rect><rect fill="#101010" height="16" width="100%" x="0" y="896"></rect><rect fill="#202060" height="16" width="100%" x="0" y="912"></rect><rect fill="#101010" height="16" width="100%" x="0" y="928"></rect><rect fill="#202060" height="128" width="100%" x="0" y="944"></rect><rect fill="#101010" height="128" width="100%" x="0" y="1072"></rect><rect fill="#006818" height="128" width="100%" x="0" y="1200"></rect><rect fill="#101010" height="16" width="100%" x="0" y="1328"></rect><rect fill="#006818" height="128" width="100%" x="0" y="1344"></rect><rect fill="#101010" height="128" width="100%" x="0" y="1472"></rect><rect fill="#202060" height="16" width="100%" x="0" y="1600"></rect><rect fill="#101010" height="16" width="100%" x="0" y="1616"></rect><rect fill="#202060" height="16" width="100%" x="0" y="1632"></rect><rect fill="#101010" height="16" width="100%" x="0" y="1648"></rect></g>
      <g class="vertStripes" mask="url(#grating)"><rect fill="#202060" height="100%" width="176" x="0" y="0"></rect><rect fill="#101010" height="100%" width="16" x="176" y="0"></rect><rect fill="#202060" height="100%" width="16" x="192" y="0"></rect><rect fill="#101010" height="100%" width="16" x="208" y="0"></rect><rect fill="#202060" height="100%" width="16" x="224" y="0"></rect><rect fill="#101010" height="100%" width="128" x="240" y="0"></rect><rect fill="#006818" height="100%" width="128" x="368" y="0"></rect><rect fill="#101010" height="100%" width="16" x="496" y="0"></rect><rect fill="#006818" height="100%" width="128" x="512" y="0"></rect><rect fill="#101010" height="100%" width="128" x="640" y="0"></rect><rect fill="#202060" height="100%" width="128" x="768" y="0"></rect><rect fill="#101010" height="100%" width="16" x="896" y="0"></rect><rect fill="#202060" height="100%" width="16" x="912" y="0"></rect><rect fill="#101010" height="100%" width="16" x="928" y="0"></rect><rect fill="#202060" height="100%" width="128" x="944" y="0"></rect><rect fill="#101010" height="100%" width="128" x="1072" y="0"></rect><rect fill="#006818" height="100%" width="128" x="1200" y="0"></rect><rect fill="#101010" height="100%" width="16" x="1328" y="0"></rect><rect fill="#006818" height="100%" width="128" x="1344" y="0"></rect><rect fill="#101010" height="100%" width="128" x="1472" y="0"></rect><rect fill="#202060" height="100%" width="16" x="1600" y="0"></rect><rect fill="#101010" height="100%" width="16" x="1616" y="0"></rect><rect fill="#202060" height="100%" width="16" x="1632" y="0"></rect><rect fill="#101010" height="100%" width="16" x="1648" y="0"></rect></g>
    </g>
  </g>
</svg>