<svg viewBox="0 0 1352 1352" width="1352" height="1352" xmlns="http://www.w3.org/2000/svg">
  <defs>
    <pattern id="pattern" x="0" y="0" width="8" height="8" patternUnits="userSpaceOnUse">
      <polygon points="0,4 0,8 8,0 4,0" fill="#ffffff"></polygon>
      <polygon points="4,8 8,8 8,4" fill="#ffffff"></polygon>
    </pattern>
    <mask id="grating" x="0" y="0" width="1" height="1">
      <rect x="0" y="0" width="100%" height="100%" fill="url(#pattern)"></rect>
    </mask>
  </defs>
  <clipPath id="dimensionClip">
    <rect x="0" y="0" width="1352" height="1352" />
  </clipPath>
  <g id="tartan" clip-path="url(#dimensionClip)">
    <g transform="translate(0, 0)">
      <g class="horizStripes"><rect fill="#FCFCFC" height="8" width="100%" x="0" y="0"></rect><rect fill="#101010" height="44" width="100%" x="0" y="8"></rect><rect fill="#FCFCFC" height="16" width="100%" x="0" y="52"></rect><rect fill="#101010" height="112" width="100%" x="0" y="68"></rect><rect fill="#FCFCFC" height="140" width="100%" x="0" y="180"></rect><rect fill="#C80000" height="12" width="100%" x="0" y="320"></rect><rect fill="#FCFCFC" height="20" width="100%" x="0" y="332"></rect><rect fill="#C80000" height="12" width="100%" x="0" y="352"></rect><rect fill="#FCFCFC" height="140" width="100%" x="0" y="364"></rect><rect fill="#101010" height="112" width="100%" x="0" y="504"></rect><rect fill="#FCFCFC" height="16" width="100%" x="0" y="616"></rect><rect fill="#101010" height="44" width="100%" x="0" y="632"></rect></g>
      <g class="vertStripes" mask="url(#grating)"><rect fill="#FCFCFC" height="100%" width="8" x="0" y="0"></rect><rect fill="#101010" height="100%" width="44" x="8" y="0"></rect><rect fill="#FCFCFC" height="100%" width="16" x="52" y="0"></rect><rect fill="#101010" height="100%" width="112" x="68" y="0"></rect><rect fill="#FCFCFC" height="100%" width="140" x="180" y="0"></rect><rect fill="#C80000" height="100%" width="12" x="320" y="0"></rect><rect fill="#FCFCFC" height="100%" width="20" x="332" y="0"></rect><rect fill="#C80000" height="100%" width="12" x="352" y="0"></rect><rect fill="#FCFCFC" height="100%" width="140" x="364" y="0"></rect><rect fill="#101010" height="100%" width="112" x="504" y="0"></rect><rect fill="#FCFCFC" height="100%" width="16" x="616" y="0"></rect><rect fill="#101010" height="100%" width="44" x="632" y="0"></rect></g>
    </g>

    <g transform="translate(676, 0)">
      <g class="horizStripes"><rect fill="#FCFCFC" height="8" width="100%" x="0" y="0"></rect><rect fill="#101010" height="44" width="100%" x="0" y="8"></rect><rect fill="#FCFCFC" height="16" width="100%" x="0" y="52"></rect><rect fill="#101010" height="112" width="100%" x="0" y="68"></rect><rect fill="#FCFCFC" height="140" width="100%" x="0" y="180"></rect><rect fill="#C80000" height="12" width="100%" x="0" y="320"></rect><rect fill="#FCFCFC" height="20" width="100%" x="0" y="332"></rect><rect fill="#C80000" height="12" width="100%" x="0" y="352"></rect><rect fill="#FCFCFC" height="140" width="100%" x="0" y="364"></rect><rect fill="#101010" height="112" width="100%" x="0" y="504"></rect><rect fill="#FCFCFC" height="16" width="100%" x="0" y="616"></rect><rect fill="#101010" height="44" width="100%" x="0" y="632"></rect></g>
      <g class="vertStripes" mask="url(#grating)"><rect fill="#FCFCFC" height="100%" width="8" x="0" y="0"></rect><rect fill="#101010" height="100%" width="44" x="8" y="0"></rect><rect fill="#FCFCFC" height="100%" width="16" x="52" y="0"></rect><rect fill="#101010" height="100%" width="112" x="68" y="0"></rect><rect fill="#FCFCFC" height="100%" width="140" x="180" y="0"></rect><rect fill="#C80000" height="100%" width="12" x="320" y="0"></rect><rect fill="#FCFCFC" height="100%" width="20" x="332" y="0"></rect><rect fill="#C80000" height="100%" width="12" x="352" y="0"></rect><rect fill="#FCFCFC" height="100%" width="140" x="364" y="0"></rect><rect fill="#101010" height="100%" width="112" x="504" y="0"></rect><rect fill="#FCFCFC" height="100%" width="16" x="616" y="0"></rect><rect fill="#101010" height="100%" width="44" x="632" y="0"></rect></g>
    </g>

    <g transform="translate(0, 676)">
      <g class="horizStripes"><rect fill="#FCFCFC" height="8" width="100%" x="0" y="0"></rect><rect fill="#101010" height="44" width="100%" x="0" y="8"></rect><rect fill="#FCFCFC" height="16" width="100%" x="0" y="52"></rect><rect fill="#101010" height="112" width="100%" x="0" y="68"></rect><rect fill="#FCFCFC" height="140" width="100%" x="0" y="180"></rect><rect fill="#C80000" height="12" width="100%" x="0" y="320"></rect><rect fill="#FCFCFC" height="20" width="100%" x="0" y="332"></rect><rect fill="#C80000" height="12" width="100%" x="0" y="352"></rect><rect fill="#FCFCFC" height="140" width="100%" x="0" y="364"></rect><rect fill="#101010" height="112" width="100%" x="0" y="504"></rect><rect fill="#FCFCFC" height="16" width="100%" x="0" y="616"></rect><rect fill="#101010" height="44" width="100%" x="0" y="632"></rect></g>
      <g class="vertStripes" mask="url(#grating)"><rect fill="#FCFCFC" height="100%" width="8" x="0" y="0"></rect><rect fill="#101010" height="100%" width="44" x="8" y="0"></rect><rect fill="#FCFCFC" height="100%" width="16" x="52" y="0"></rect><rect fill="#101010" height="100%" width="112" x="68" y="0"></rect><rect fill="#FCFCFC" height="100%" width="140" x="180" y="0"></rect><rect fill="#C80000" height="100%" width="12" x="320" y="0"></rect><rect fill="#FCFCFC" height="100%" width="20" x="332" y="0"></rect><rect fill="#C80000" height="100%" width="12" x="352" y="0"></rect><rect fill="#FCFCFC" height="100%" width="140" x="364" y="0"></rect><rect fill="#101010" height="100%" width="112" x="504" y="0"></rect><rect fill="#FCFCFC" height="100%" width="16" x="616" y="0"></rect><rect fill="#101010" height="100%" width="44" x="632" y="0"></rect></g>
    </g>

    <g transform="translate(676, 676)">
      <g class="horizStripes"><rect fill="#FCFCFC" height="8" width="100%" x="0" y="0"></rect><rect fill="#101010" height="44" width="100%" x="0" y="8"></rect><rect fill="#FCFCFC" height="16" width="100%" x="0" y="52"></rect><rect fill="#101010" height="112" width="100%" x="0" y="68"></rect><rect fill="#FCFCFC" height="140" width="100%" x="0" y="180"></rect><rect fill="#C80000" height="12" width="100%" x="0" y="320"></rect><rect fill="#FCFCFC" height="20" width="100%" x="0" y="332"></rect><rect fill="#C80000" height="12" width="100%" x="0" y="352"></rect><rect fill="#FCFCFC" height="140" width="100%" x="0" y="364"></rect><rect fill="#101010" height="112" width="100%" x="0" y="504"></rect><rect fill="#FCFCFC" height="16" width="100%" x="0" y="616"></rect><rect fill="#101010" height="44" width="100%" x="0" y="632"></rect></g>
      <g class="vertStripes" mask="url(#grating)"><rect fill="#FCFCFC" height="100%" width="8" x="0" y="0"></rect><rect fill="#101010" height="100%" width="44" x="8" y="0"></rect><rect fill="#FCFCFC" height="100%" width="16" x="52" y="0"></rect><rect fill="#101010" height="100%" width="112" x="68" y="0"></rect><rect fill="#FCFCFC" height="100%" width="140" x="180" y="0"></rect><rect fill="#C80000" height="100%" width="12" x="320" y="0"></rect><rect fill="#FCFCFC" height="100%" width="20" x="332" y="0"></rect><rect fill="#C80000" height="100%" width="12" x="352" y="0"></rect><rect fill="#FCFCFC" height="100%" width="140" x="364" y="0"></rect><rect fill="#101010" height="100%" width="112" x="504" y="0"></rect><rect fill="#FCFCFC" height="100%" width="16" x="616" y="0"></rect><rect fill="#101010" height="100%" width="44" x="632" y="0"></rect></g>
    </g>
  </g>
</svg>