<svg viewBox="0 0 1696 1696" width="1696" height="1696" xmlns="http://www.w3.org/2000/svg">
  <defs>
    <pattern id="pattern" x="0" y="0" width="8" height="8" patternUnits="userSpaceOnUse">
      <polygon points="0,4 0,8 8,0 4,0" fill="#ffffff"></polygon>
      <polygon points="4,8 8,8 8,4" fill="#ffffff"></polygon>
    </pattern>
    <mask id="grating" x="0" y="0" width="1" height="1">
      <rect x="0" y="0" width="100%" height="100%" fill="url(#pattern)"></rect>
    </mask>
  </defs>
  <clipPath id="dimensionClip">
    <rect x="0" y="0" width="1696" height="1696" />
  </clipPath>
  <g id="tartan" clip-path="url(#dimensionClip)">
    <g transform="translate(0, 0)">
      <g class="horizStripes"><rect fill="#C80000" height="288" width="100%" x="0" y="0"></rect><rect fill="#2C2C80" height="32" width="100%" x="0" y="288"></rect><rect fill="#101010" height="48" width="100%" x="0" y="320"></rect><rect fill="#E8C000" height="16" width="100%" x="0" y="368"></rect><rect fill="#101010" height="16" width="100%" x="0" y="384"></rect><rect fill="#FCFCFC" height="16" width="100%" x="0" y="400"></rect><rect fill="#101010" height="16" width="100%" x="0" y="416"></rect><rect fill="#006818" height="64" width="100%" x="0" y="432"></rect><rect fill="#C80000" height="32" width="100%" x="0" y="496"></rect><rect fill="#101010" height="16" width="100%" x="0" y="528"></rect><rect fill="#C80000" height="16" width="100%" x="0" y="544"></rect><rect fill="#FCFCFC" height="16" width="100%" x="0" y="560"></rect><rect fill="#C80000" height="16" width="100%" x="0" y="576"></rect><rect fill="#101010" height="16" width="100%" x="0" y="592"></rect><rect fill="#C80000" height="32" width="100%" x="0" y="608"></rect><rect fill="#006818" height="64" width="100%" x="0" y="640"></rect><rect fill="#101010" height="16" width="100%" x="0" y="704"></rect><rect fill="#FCFCFC" height="16" width="100%" x="0" y="720"></rect><rect fill="#101010" height="16" width="100%" x="0" y="736"></rect><rect fill="#E8C000" height="16" width="100%" x="0" y="752"></rect><rect fill="#101010" height="48" width="100%" x="0" y="768"></rect><rect fill="#2C2C80" height="32" width="100%" x="0" y="816"></rect></g>
      <g class="vertStripes" mask="url(#grating)"><rect fill="#C80000" height="100%" width="288" x="0" y="0"></rect><rect fill="#2C2C80" height="100%" width="32" x="288" y="0"></rect><rect fill="#101010" height="100%" width="48" x="320" y="0"></rect><rect fill="#E8C000" height="100%" width="16" x="368" y="0"></rect><rect fill="#101010" height="100%" width="16" x="384" y="0"></rect><rect fill="#FCFCFC" height="100%" width="16" x="400" y="0"></rect><rect fill="#101010" height="100%" width="16" x="416" y="0"></rect><rect fill="#006818" height="100%" width="64" x="432" y="0"></rect><rect fill="#C80000" height="100%" width="32" x="496" y="0"></rect><rect fill="#101010" height="100%" width="16" x="528" y="0"></rect><rect fill="#C80000" height="100%" width="16" x="544" y="0"></rect><rect fill="#FCFCFC" height="100%" width="16" x="560" y="0"></rect><rect fill="#C80000" height="100%" width="16" x="576" y="0"></rect><rect fill="#101010" height="100%" width="16" x="592" y="0"></rect><rect fill="#C80000" height="100%" width="32" x="608" y="0"></rect><rect fill="#006818" height="100%" width="64" x="640" y="0"></rect><rect fill="#101010" height="100%" width="16" x="704" y="0"></rect><rect fill="#FCFCFC" height="100%" width="16" x="720" y="0"></rect><rect fill="#101010" height="100%" width="16" x="736" y="0"></rect><rect fill="#E8C000" height="100%" width="16" x="752" y="0"></rect><rect fill="#101010" height="100%" width="48" x="768" y="0"></rect><rect fill="#2C2C80" height="100%" width="32" x="816" y="0"></rect></g>
    </g>

    <g transform="translate(848, 0)">
      <g class="horizStripes"><rect fill="#C80000" height="288" width="100%" x="0" y="0"></rect><rect fill="#2C2C80" height="32" width="100%" x="0" y="288"></rect><rect fill="#101010" height="48" width="100%" x="0" y="320"></rect><rect fill="#E8C000" height="16" width="100%" x="0" y="368"></rect><rect fill="#101010" height="16" width="100%" x="0" y="384"></rect><rect fill="#FCFCFC" height="16" width="100%" x="0" y="400"></rect><rect fill="#101010" height="16" width="100%" x="0" y="416"></rect><rect fill="#006818" height="64" width="100%" x="0" y="432"></rect><rect fill="#C80000" height="32" width="100%" x="0" y="496"></rect><rect fill="#101010" height="16" width="100%" x="0" y="528"></rect><rect fill="#C80000" height="16" width="100%" x="0" y="544"></rect><rect fill="#FCFCFC" height="16" width="100%" x="0" y="560"></rect><rect fill="#C80000" height="16" width="100%" x="0" y="576"></rect><rect fill="#101010" height="16" width="100%" x="0" y="592"></rect><rect fill="#C80000" height="32" width="100%" x="0" y="608"></rect><rect fill="#006818" height="64" width="100%" x="0" y="640"></rect><rect fill="#101010" height="16" width="100%" x="0" y="704"></rect><rect fill="#FCFCFC" height="16" width="100%" x="0" y="720"></rect><rect fill="#101010" height="16" width="100%" x="0" y="736"></rect><rect fill="#E8C000" height="16" width="100%" x="0" y="752"></rect><rect fill="#101010" height="48" width="100%" x="0" y="768"></rect><rect fill="#2C2C80" height="32" width="100%" x="0" y="816"></rect></g>
      <g class="vertStripes" mask="url(#grating)"><rect fill="#C80000" height="100%" width="288" x="0" y="0"></rect><rect fill="#2C2C80" height="100%" width="32" x="288" y="0"></rect><rect fill="#101010" height="100%" width="48" x="320" y="0"></rect><rect fill="#E8C000" height="100%" width="16" x="368" y="0"></rect><rect fill="#101010" height="100%" width="16" x="384" y="0"></rect><rect fill="#FCFCFC" height="100%" width="16" x="400" y="0"></rect><rect fill="#101010" height="100%" width="16" x="416" y="0"></rect><rect fill="#006818" height="100%" width="64" x="432" y="0"></rect><rect fill="#C80000" height="100%" width="32" x="496" y="0"></rect><rect fill="#101010" height="100%" width="16" x="528" y="0"></rect><rect fill="#C80000" height="100%" width="16" x="544" y="0"></rect><rect fill="#FCFCFC" height="100%" width="16" x="560" y="0"></rect><rect fill="#C80000" height="100%" width="16" x="576" y="0"></rect><rect fill="#101010" height="100%" width="16" x="592" y="0"></rect><rect fill="#C80000" height="100%" width="32" x="608" y="0"></rect><rect fill="#006818" height="100%" width="64" x="640" y="0"></rect><rect fill="#101010" height="100%" width="16" x="704" y="0"></rect><rect fill="#FCFCFC" height="100%" width="16" x="720" y="0"></rect><rect fill="#101010" height="100%" width="16" x="736" y="0"></rect><rect fill="#E8C000" height="100%" width="16" x="752" y="0"></rect><rect fill="#101010" height="100%" width="48" x="768" y="0"></rect><rect fill="#2C2C80" height="100%" width="32" x="816" y="0"></rect></g>
    </g>

    <g transform="translate(0, 848)">
      <g class="horizStripes"><rect fill="#C80000" height="288" width="100%" x="0" y="0"></rect><rect fill="#2C2C80" height="32" width="100%" x="0" y="288"></rect><rect fill="#101010" height="48" width="100%" x="0" y="320"></rect><rect fill="#E8C000" height="16" width="100%" x="0" y="368"></rect><rect fill="#101010" height="16" width="100%" x="0" y="384"></rect><rect fill="#FCFCFC" height="16" width="100%" x="0" y="400"></rect><rect fill="#101010" height="16" width="100%" x="0" y="416"></rect><rect fill="#006818" height="64" width="100%" x="0" y="432"></rect><rect fill="#C80000" height="32" width="100%" x="0" y="496"></rect><rect fill="#101010" height="16" width="100%" x="0" y="528"></rect><rect fill="#C80000" height="16" width="100%" x="0" y="544"></rect><rect fill="#FCFCFC" height="16" width="100%" x="0" y="560"></rect><rect fill="#C80000" height="16" width="100%" x="0" y="576"></rect><rect fill="#101010" height="16" width="100%" x="0" y="592"></rect><rect fill="#C80000" height="32" width="100%" x="0" y="608"></rect><rect fill="#006818" height="64" width="100%" x="0" y="640"></rect><rect fill="#101010" height="16" width="100%" x="0" y="704"></rect><rect fill="#FCFCFC" height="16" width="100%" x="0" y="720"></rect><rect fill="#101010" height="16" width="100%" x="0" y="736"></rect><rect fill="#E8C000" height="16" width="100%" x="0" y="752"></rect><rect fill="#101010" height="48" width="100%" x="0" y="768"></rect><rect fill="#2C2C80" height="32" width="100%" x="0" y="816"></rect></g>
      <g class="vertStripes" mask="url(#grating)"><rect fill="#C80000" height="100%" width="288" x="0" y="0"></rect><rect fill="#2C2C80" height="100%" width="32" x="288" y="0"></rect><rect fill="#101010" height="100%" width="48" x="320" y="0"></rect><rect fill="#E8C000" height="100%" width="16" x="368" y="0"></rect><rect fill="#101010" height="100%" width="16" x="384" y="0"></rect><rect fill="#FCFCFC" height="100%" width="16" x="400" y="0"></rect><rect fill="#101010" height="100%" width="16" x="416" y="0"></rect><rect fill="#006818" height="100%" width="64" x="432" y="0"></rect><rect fill="#C80000" height="100%" width="32" x="496" y="0"></rect><rect fill="#101010" height="100%" width="16" x="528" y="0"></rect><rect fill="#C80000" height="100%" width="16" x="544" y="0"></rect><rect fill="#FCFCFC" height="100%" width="16" x="560" y="0"></rect><rect fill="#C80000" height="100%" width="16" x="576" y="0"></rect><rect fill="#101010" height="100%" width="16" x="592" y="0"></rect><rect fill="#C80000" height="100%" width="32" x="608" y="0"></rect><rect fill="#006818" height="100%" width="64" x="640" y="0"></rect><rect fill="#101010" height="100%" width="16" x="704" y="0"></rect><rect fill="#FCFCFC" height="100%" width="16" x="720" y="0"></rect><rect fill="#101010" height="100%" width="16" x="736" y="0"></rect><rect fill="#E8C000" height="100%" width="16" x="752" y="0"></rect><rect fill="#101010" height="100%" width="48" x="768" y="0"></rect><rect fill="#2C2C80" height="100%" width="32" x="816" y="0"></rect></g>
    </g>

    <g transform="translate(848, 848)">
      <g class="horizStripes"><rect fill="#C80000" height="288" width="100%" x="0" y="0"></rect><rect fill="#2C2C80" height="32" width="100%" x="0" y="288"></rect><rect fill="#101010" height="48" width="100%" x="0" y="320"></rect><rect fill="#E8C000" height="16" width="100%" x="0" y="368"></rect><rect fill="#101010" height="16" width="100%" x="0" y="384"></rect><rect fill="#FCFCFC" height="16" width="100%" x="0" y="400"></rect><rect fill="#101010" height="16" width="100%" x="0" y="416"></rect><rect fill="#006818" height="64" width="100%" x="0" y="432"></rect><rect fill="#C80000" height="32" width="100%" x="0" y="496"></rect><rect fill="#101010" height="16" width="100%" x="0" y="528"></rect><rect fill="#C80000" height="16" width="100%" x="0" y="544"></rect><rect fill="#FCFCFC" height="16" width="100%" x="0" y="560"></rect><rect fill="#C80000" height="16" width="100%" x="0" y="576"></rect><rect fill="#101010" height="16" width="100%" x="0" y="592"></rect><rect fill="#C80000" height="32" width="100%" x="0" y="608"></rect><rect fill="#006818" height="64" width="100%" x="0" y="640"></rect><rect fill="#101010" height="16" width="100%" x="0" y="704"></rect><rect fill="#FCFCFC" height="16" width="100%" x="0" y="720"></rect><rect fill="#101010" height="16" width="100%" x="0" y="736"></rect><rect fill="#E8C000" height="16" width="100%" x="0" y="752"></rect><rect fill="#101010" height="48" width="100%" x="0" y="768"></rect><rect fill="#2C2C80" height="32" width="100%" x="0" y="816"></rect></g>
      <g class="vertStripes" mask="url(#grating)"><rect fill="#C80000" height="100%" width="288" x="0" y="0"></rect><rect fill="#2C2C80" height="100%" width="32" x="288" y="0"></rect><rect fill="#101010" height="100%" width="48" x="320" y="0"></rect><rect fill="#E8C000" height="100%" width="16" x="368" y="0"></rect><rect fill="#101010" height="100%" width="16" x="384" y="0"></rect><rect fill="#FCFCFC" height="100%" width="16" x="400" y="0"></rect><rect fill="#101010" height="100%" width="16" x="416" y="0"></rect><rect fill="#006818" height="100%" width="64" x="432" y="0"></rect><rect fill="#C80000" height="100%" width="32" x="496" y="0"></rect><rect fill="#101010" height="100%" width="16" x="528" y="0"></rect><rect fill="#C80000" height="100%" width="16" x="544" y="0"></rect><rect fill="#FCFCFC" height="100%" width="16" x="560" y="0"></rect><rect fill="#C80000" height="100%" width="16" x="576" y="0"></rect><rect fill="#101010" height="100%" width="16" x="592" y="0"></rect><rect fill="#C80000" height="100%" width="32" x="608" y="0"></rect><rect fill="#006818" height="100%" width="64" x="640" y="0"></rect><rect fill="#101010" height="100%" width="16" x="704" y="0"></rect><rect fill="#FCFCFC" height="100%" width="16" x="720" y="0"></rect><rect fill="#101010" height="100%" width="16" x="736" y="0"></rect><rect fill="#E8C000" height="100%" width="16" x="752" y="0"></rect><rect fill="#101010" height="100%" width="48" x="768" y="0"></rect><rect fill="#2C2C80" height="100%" width="32" x="816" y="0"></rect></g>
    </g>
  </g>
</svg>