<svg viewBox="0 0 224 224" width="224" height="224" xmlns="http://www.w3.org/2000/svg">
  <defs>
    <pattern id="pattern" x="0" y="0" width="8" height="8" patternUnits="userSpaceOnUse">
      <polygon points="0,4 0,8 8,0 4,0" fill="#ffffff"></polygon>
      <polygon points="4,8 8,8 8,4" fill="#ffffff"></polygon>
    </pattern>
    <mask id="grating" x="0" y="0" width="1" height="1">
      <rect x="0" y="0" width="100%" height="100%" fill="url(#pattern)"></rect>
    </mask>
  </defs>
  <clipPath id="dimensionClip">
    <rect x="0" y="0" width="224" height="224" />
  </clipPath>
  <g id="tartan" clip-path="url(#dimensionClip)">
    <g transform="translate(0, 0)">
      <g class="horizStripes"><rect fill="#DC0000" height="56" width="100%" x="0" y="0"></rect><rect fill="#2C4084" height="16" width="100%" x="0" y="56"></rect><rect fill="#101010" height="16" width="100%" x="0" y="72"></rect><rect fill="#E8C000" height="8" width="100%" x="0" y="88"></rect><rect fill="#101010" height="16" width="100%" x="0" y="96"></rect><rect fill="#DC0000" height="16" width="100%" x="0" y="112"></rect><rect fill="#101010" height="8" width="100%" x="0" y="128"></rect><rect fill="#E0E0E0" height="8" width="100%" x="0" y="136"></rect><rect fill="#101010" height="8" width="100%" x="0" y="144"></rect><rect fill="#DC0000" height="16" width="100%" x="0" y="152"></rect><rect fill="#101010" height="16" width="100%" x="0" y="168"></rect><rect fill="#E8C000" height="8" width="100%" x="0" y="184"></rect><rect fill="#101010" height="16" width="100%" x="0" y="192"></rect><rect fill="#2C4084" height="16" width="100%" x="0" y="208"></rect></g>
      <g class="vertStripes" mask="url(#grating)"><rect fill="#DC0000" height="100%" width="56" x="0" y="0"></rect><rect fill="#2C4084" height="100%" width="16" x="56" y="0"></rect><rect fill="#101010" height="100%" width="16" x="72" y="0"></rect><rect fill="#E8C000" height="100%" width="8" x="88" y="0"></rect><rect fill="#101010" height="100%" width="16" x="96" y="0"></rect><rect fill="#DC0000" height="100%" width="16" x="112" y="0"></rect><rect fill="#101010" height="100%" width="8" x="128" y="0"></rect><rect fill="#E0E0E0" height="100%" width="8" x="136" y="0"></rect><rect fill="#101010" height="100%" width="8" x="144" y="0"></rect><rect fill="#DC0000" height="100%" width="16" x="152" y="0"></rect><rect fill="#101010" height="100%" width="16" x="168" y="0"></rect><rect fill="#E8C000" height="100%" width="8" x="184" y="0"></rect><rect fill="#101010" height="100%" width="16" x="192" y="0"></rect><rect fill="#2C4084" height="100%" width="16" x="208" y="0"></rect></g>
    </g>
  </g>
</svg>