<svg viewBox="0 0 1344 1344" width="1344" height="1344" xmlns="http://www.w3.org/2000/svg">
  <defs>
    <pattern id="pattern" x="0" y="0" width="8" height="8" patternUnits="userSpaceOnUse">
      <polygon points="0,4 0,8 8,0 4,0" fill="#ffffff"></polygon>
      <polygon points="4,8 8,8 8,4" fill="#ffffff"></polygon>
    </pattern>
    <mask id="grating" x="0" y="0" width="1" height="1">
      <rect x="0" y="0" width="100%" height="100%" fill="url(#pattern)"></rect>
    </mask>
  </defs>
  <clipPath id="dimensionClip">
    <rect x="0" y="0" width="1344" height="1344" />
  </clipPath>
  <g id="tartan" clip-path="url(#dimensionClip)">
    <g transform="translate(0, 0)">
      <g class="horizStripes"><rect fill="#DC0000" height="168" width="100%" x="0" y="0"></rect><rect fill="#2C4084" height="48" width="100%" x="0" y="168"></rect><rect fill="#101010" height="48" width="100%" x="0" y="216"></rect><rect fill="#E8C000" height="24" width="100%" x="0" y="264"></rect><rect fill="#101010" height="48" width="100%" x="0" y="288"></rect><rect fill="#DC0000" height="48" width="100%" x="0" y="336"></rect><rect fill="#101010" height="24" width="100%" x="0" y="384"></rect><rect fill="#E0E0E0" height="24" width="100%" x="0" y="408"></rect><rect fill="#101010" height="24" width="100%" x="0" y="432"></rect><rect fill="#DC0000" height="48" width="100%" x="0" y="456"></rect><rect fill="#101010" height="48" width="100%" x="0" y="504"></rect><rect fill="#E8C000" height="24" width="100%" x="0" y="552"></rect><rect fill="#101010" height="48" width="100%" x="0" y="576"></rect><rect fill="#2C4084" height="48" width="100%" x="0" y="624"></rect></g>
      <g class="vertStripes" mask="url(#grating)"><rect fill="#DC0000" height="100%" width="168" x="0" y="0"></rect><rect fill="#2C4084" height="100%" width="48" x="168" y="0"></rect><rect fill="#101010" height="100%" width="48" x="216" y="0"></rect><rect fill="#E8C000" height="100%" width="24" x="264" y="0"></rect><rect fill="#101010" height="100%" width="48" x="288" y="0"></rect><rect fill="#DC0000" height="100%" width="48" x="336" y="0"></rect><rect fill="#101010" height="100%" width="24" x="384" y="0"></rect><rect fill="#E0E0E0" height="100%" width="24" x="408" y="0"></rect><rect fill="#101010" height="100%" width="24" x="432" y="0"></rect><rect fill="#DC0000" height="100%" width="48" x="456" y="0"></rect><rect fill="#101010" height="100%" width="48" x="504" y="0"></rect><rect fill="#E8C000" height="100%" width="24" x="552" y="0"></rect><rect fill="#101010" height="100%" width="48" x="576" y="0"></rect><rect fill="#2C4084" height="100%" width="48" x="624" y="0"></rect></g>
    </g>

    <g transform="translate(672, 0)">
      <g class="horizStripes"><rect fill="#DC0000" height="168" width="100%" x="0" y="0"></rect><rect fill="#2C4084" height="48" width="100%" x="0" y="168"></rect><rect fill="#101010" height="48" width="100%" x="0" y="216"></rect><rect fill="#E8C000" height="24" width="100%" x="0" y="264"></rect><rect fill="#101010" height="48" width="100%" x="0" y="288"></rect><rect fill="#DC0000" height="48" width="100%" x="0" y="336"></rect><rect fill="#101010" height="24" width="100%" x="0" y="384"></rect><rect fill="#E0E0E0" height="24" width="100%" x="0" y="408"></rect><rect fill="#101010" height="24" width="100%" x="0" y="432"></rect><rect fill="#DC0000" height="48" width="100%" x="0" y="456"></rect><rect fill="#101010" height="48" width="100%" x="0" y="504"></rect><rect fill="#E8C000" height="24" width="100%" x="0" y="552"></rect><rect fill="#101010" height="48" width="100%" x="0" y="576"></rect><rect fill="#2C4084" height="48" width="100%" x="0" y="624"></rect></g>
      <g class="vertStripes" mask="url(#grating)"><rect fill="#DC0000" height="100%" width="168" x="0" y="0"></rect><rect fill="#2C4084" height="100%" width="48" x="168" y="0"></rect><rect fill="#101010" height="100%" width="48" x="216" y="0"></rect><rect fill="#E8C000" height="100%" width="24" x="264" y="0"></rect><rect fill="#101010" height="100%" width="48" x="288" y="0"></rect><rect fill="#DC0000" height="100%" width="48" x="336" y="0"></rect><rect fill="#101010" height="100%" width="24" x="384" y="0"></rect><rect fill="#E0E0E0" height="100%" width="24" x="408" y="0"></rect><rect fill="#101010" height="100%" width="24" x="432" y="0"></rect><rect fill="#DC0000" height="100%" width="48" x="456" y="0"></rect><rect fill="#101010" height="100%" width="48" x="504" y="0"></rect><rect fill="#E8C000" height="100%" width="24" x="552" y="0"></rect><rect fill="#101010" height="100%" width="48" x="576" y="0"></rect><rect fill="#2C4084" height="100%" width="48" x="624" y="0"></rect></g>
    </g>

    <g transform="translate(0, 672)">
      <g class="horizStripes"><rect fill="#DC0000" height="168" width="100%" x="0" y="0"></rect><rect fill="#2C4084" height="48" width="100%" x="0" y="168"></rect><rect fill="#101010" height="48" width="100%" x="0" y="216"></rect><rect fill="#E8C000" height="24" width="100%" x="0" y="264"></rect><rect fill="#101010" height="48" width="100%" x="0" y="288"></rect><rect fill="#DC0000" height="48" width="100%" x="0" y="336"></rect><rect fill="#101010" height="24" width="100%" x="0" y="384"></rect><rect fill="#E0E0E0" height="24" width="100%" x="0" y="408"></rect><rect fill="#101010" height="24" width="100%" x="0" y="432"></rect><rect fill="#DC0000" height="48" width="100%" x="0" y="456"></rect><rect fill="#101010" height="48" width="100%" x="0" y="504"></rect><rect fill="#E8C000" height="24" width="100%" x="0" y="552"></rect><rect fill="#101010" height="48" width="100%" x="0" y="576"></rect><rect fill="#2C4084" height="48" width="100%" x="0" y="624"></rect></g>
      <g class="vertStripes" mask="url(#grating)"><rect fill="#DC0000" height="100%" width="168" x="0" y="0"></rect><rect fill="#2C4084" height="100%" width="48" x="168" y="0"></rect><rect fill="#101010" height="100%" width="48" x="216" y="0"></rect><rect fill="#E8C000" height="100%" width="24" x="264" y="0"></rect><rect fill="#101010" height="100%" width="48" x="288" y="0"></rect><rect fill="#DC0000" height="100%" width="48" x="336" y="0"></rect><rect fill="#101010" height="100%" width="24" x="384" y="0"></rect><rect fill="#E0E0E0" height="100%" width="24" x="408" y="0"></rect><rect fill="#101010" height="100%" width="24" x="432" y="0"></rect><rect fill="#DC0000" height="100%" width="48" x="456" y="0"></rect><rect fill="#101010" height="100%" width="48" x="504" y="0"></rect><rect fill="#E8C000" height="100%" width="24" x="552" y="0"></rect><rect fill="#101010" height="100%" width="48" x="576" y="0"></rect><rect fill="#2C4084" height="100%" width="48" x="624" y="0"></rect></g>
    </g>

    <g transform="translate(672, 672)">
      <g class="horizStripes"><rect fill="#DC0000" height="168" width="100%" x="0" y="0"></rect><rect fill="#2C4084" height="48" width="100%" x="0" y="168"></rect><rect fill="#101010" height="48" width="100%" x="0" y="216"></rect><rect fill="#E8C000" height="24" width="100%" x="0" y="264"></rect><rect fill="#101010" height="48" width="100%" x="0" y="288"></rect><rect fill="#DC0000" height="48" width="100%" x="0" y="336"></rect><rect fill="#101010" height="24" width="100%" x="0" y="384"></rect><rect fill="#E0E0E0" height="24" width="100%" x="0" y="408"></rect><rect fill="#101010" height="24" width="100%" x="0" y="432"></rect><rect fill="#DC0000" height="48" width="100%" x="0" y="456"></rect><rect fill="#101010" height="48" width="100%" x="0" y="504"></rect><rect fill="#E8C000" height="24" width="100%" x="0" y="552"></rect><rect fill="#101010" height="48" width="100%" x="0" y="576"></rect><rect fill="#2C4084" height="48" width="100%" x="0" y="624"></rect></g>
      <g class="vertStripes" mask="url(#grating)"><rect fill="#DC0000" height="100%" width="168" x="0" y="0"></rect><rect fill="#2C4084" height="100%" width="48" x="168" y="0"></rect><rect fill="#101010" height="100%" width="48" x="216" y="0"></rect><rect fill="#E8C000" height="100%" width="24" x="264" y="0"></rect><rect fill="#101010" height="100%" width="48" x="288" y="0"></rect><rect fill="#DC0000" height="100%" width="48" x="336" y="0"></rect><rect fill="#101010" height="100%" width="24" x="384" y="0"></rect><rect fill="#E0E0E0" height="100%" width="24" x="408" y="0"></rect><rect fill="#101010" height="100%" width="24" x="432" y="0"></rect><rect fill="#DC0000" height="100%" width="48" x="456" y="0"></rect><rect fill="#101010" height="100%" width="48" x="504" y="0"></rect><rect fill="#E8C000" height="100%" width="24" x="552" y="0"></rect><rect fill="#101010" height="100%" width="48" x="576" y="0"></rect><rect fill="#2C4084" height="100%" width="48" x="624" y="0"></rect></g>
    </g>
  </g>
</svg>